<svg id="MapaSVG" version="1.1" xmlns="http://www.w3.org/2000/svg" xmlns:xlink="http://www.w3.org/1999/xlink" x="0px" y="0px"
	 viewBox="0 0 1600 700" style="enable-background:new 0 0 1600 700;" xml:space="preserve">
<g id="basepiso">
	<path style="fill:#d0cece;" d="M524,5.8L393.2,136.5L371,158.7l-18.1,25v353.2h1.8c0,0-0.4,26.6,9.2,45.1c0,0,12.6,35.2,52.3,52.8
		c0,0,29.7,15.5,100,16.2h386.3h6.6c0,0,6.3-0.4,12.3-4.8l13.2-12.7l33.4-31.8l53.8-49.8l35.3-35.3l124.9-126.1
		c0,0,6.7-6.8,7.8-13.2l15.4-38.5c0,0,1.7-2.1,2.8-3.1l63.2-63.3l106.7-106.3l-0.4-96.7l-25.4-25.1H791.3L752,5L524,5.8z"/>
</g>
<g id="L01">
	<rect x="514.7" y="295.6" style="stroke:#358C79;stroke-miterlimit:10;" width="20.2" height="11.4"/>
</g>
<g id="L02">
	<rect x="535.5" y="295.6" style="stroke:#358C79;stroke-miterlimit:10;" width="17.3" height="11.8"/>
</g>
<g id="L04">
	<polygon style="stroke:#358C79;stroke-miterlimit:10;" points="553.5,295.6 563.9,295.6 577.2,282.2 577.7,282.2 
		577.7,307.4 553.5,307.4 	"/>
</g>
<g id="L05">
	<rect x="578.4" y="282.2" style="stroke:#358C79;stroke-miterlimit:10;" width="24.2" height="25.3"/>
</g>
<g id="L06">
	<polygon style="stroke:#358C79;stroke-miterlimit:10;" points="603.5,282.2 627.6,282.2 627.6,307.5 603.5,307.5 	"/>
</g>
<g id="L07">
	<rect x="628.4" y="282.2" style="stroke:#358C79;stroke-miterlimit:10;" width="24.5" height="25.3"/>
</g>
<g id="L08">
	<polygon style="stroke:#358C79;stroke-miterlimit:10;" points="653.4,282.2 678,282.2 678,307.6 653.6,307.6 	"/>
</g>
<g id="L09">
	<polygon style="stroke:#358C79;stroke-miterlimit:10;" points="678.6,282.1 678.6,307.5 702.9,307.5 702.9,295.5 
		697.8,295.5 	"/>
</g>
<g id="L10">
	<rect x="703.7" y="295.5" style="stroke:#358C79;stroke-miterlimit:10;" width="24.4" height="11.9"/>
</g>
<g id="L11">
	<polygon style="stroke:#358C79;stroke-miterlimit:10;" points="728.8,295.5 728.8,307.4 753.1,307.4 753.1,282.1 
		734,295.5 	"/>
</g>
<g id="L12">
	<rect x="753.8" y="282.2" style="stroke:#358C79;stroke-miterlimit:10;" width="24.4" height="25.3"/>
</g>
<g id="L13">
	<polygon style="stroke:#358C79;stroke-miterlimit:10;" points="779,282.2 803.6,282.2 803.6,307.4 778.8,307.4 	"/>
</g>
<g id="L14">
	<rect x="804.2" y="282.2" style="stroke:#358C79;stroke-miterlimit:10;" width="24.1" height="25.3"/>
</g>
<g id="L15_x5F_16">
	<polygon style="stroke:#358C79;stroke-miterlimit:10;" points="829.1,282.2 829.1,307.6 853.6,307.6 853.6,282.2 	"/>
</g>
<g id="L17">
	<rect x="854.2" y="282.2" style="stroke:#358C79;stroke-miterlimit:10;" width="11.9" height="25.4"/>
</g>
<g id="L18_x5F_19">
	<polygon style="stroke:#358C79;stroke-miterlimit:10;" points="866.6,282.3 866.6,308.5 829.1,308.5 829.1,333.9 
		888.5,333.9 888.5,282.2 	"/>
</g>
<g id="L20_x5F_21_x5F_22">
	<rect x="903.2" y="282.2" style="stroke:#358C79;stroke-miterlimit:10;" width="25.6" height="51.7"/>
</g>
<g id="L23_x5F_24">
	<rect x="929.2" y="282.3" style="stroke:#358C79;stroke-miterlimit:10;" width="18.4" height="25.6"/>
</g>
<g id="L25">
	<rect x="948" y="282.2" style="stroke:#358C79;stroke-miterlimit:10;" width="18.8" height="25.7"/>
</g>
<g id="L26">
	<path style="stroke:#358C79;stroke-miterlimit:10;" d="M1004.4,144.4l4.7,0c0,0,12.7,0.5,19.2,2.8l3.7,1l4.6,1.6
		l5,1.9l0,31.4h37.2v61.6h4.4v47.6h-4.2v40.8h-99.5v-41.5v-9.4h-1.9v-34.4v-14.5h27.1v-23.4v-43.3L1004.4,144.4z"/>
</g>
<g id="L26A">
	<path style="stroke:#358C79;stroke-miterlimit:10;" d="M1042,151.7l5,2c0,0,4.8,1.5,5.9,1.8l4.4,1l2.5,0.5v25.2h-17.6
		L1042,151.7z"/>
</g>
<g id="L26B">
	<polygon style="stroke:#358C79;stroke-miterlimit:10;" points="1060.4,157 1060.5,157 1078.8,157 1078.8,182.5 
		1060.4,182.5 	"/>
</g>
<g id="L26C">
	<polygon style="stroke:#358C79;stroke-miterlimit:10;" points="1079.7,157 1079.7,182.2 1104.1,182.2 1104.1,157.1 	
		"/>
</g>
<g id="L27_x5F_28">
	<polygon style="stroke:#358C79;stroke-miterlimit:10;" points="977.8,183.3 1003.6,183.3 1003.6,232.3 977.4,232.3 	
		"/>
</g>
<g id="L29_x5F_30_x5F_31">
	<polygon style="stroke:#358C79;stroke-miterlimit:10;" points="977.7,144.4 1004,144.4 1004,182.6 977.8,182.6 	"/>
</g>
<g id="L32_x5F_33_x5F_34_x5F_35">
	<polygon style="stroke:#358C79;stroke-miterlimit:10;" points="1042,70.6 1041.8,138.9 1049.9,142.3 1057.6,144.7 
		1063.1,145.9 1129.6,145.7 1129.5,70 	"/>
</g>
<g id="L36">
	<rect x="1029.5" y="76.5" style="stroke:#358C79;stroke-miterlimit:10;" width="11.8" height="25.9"/>
</g>
<g id="L37">
	<rect x="1016.9" y="76.5" style="stroke:#358C79;stroke-miterlimit:10;" width="11.9" height="26"/>
</g>
<g id="L38_x5F_39">
	<polygon style="stroke:#358C79;stroke-miterlimit:10;" points="1016.2,76.6 992.1,76.6 992.1,102.4 1016.4,102.4 	"/>
</g>
<g id="L40_x5F_41">
	<polygon style="stroke:#358C79;stroke-miterlimit:10;" points="991.3,76.6 954.6,76.6 954.6,108.1 965.4,102.4 
		991.5,102.4 	"/>
</g>
<g id="L42">
	<polygon style="stroke:#358C79;stroke-miterlimit:10;" points="953.7,76.5 929.3,76.5 929.3,111.1 949.1,111.1 
		954.3,108.3 	"/>
</g>
<g id="L43">
	<polygon style="stroke:#358C79;stroke-miterlimit:10;" points="928.4,76.5 904.3,76.5 904.3,111.1 928.5,111.1 	"/>
</g>
<g id="L44_x5F_45">
	<polygon style="stroke:#358C79;stroke-miterlimit:10;" points="903.4,76.6 879.2,76.6 879.2,111.1 903.6,111.1 	"/>
</g>
<g id="L46">
	<polygon style="stroke:#358C79;stroke-miterlimit:10;" points="878.1,76.5 866.6,76.5 866.6,111.1 878.6,111.1 	"/>
</g>
<g id="L47_x5F_48">
	<rect x="825.8" y="76.6" style="stroke:#358C79;stroke-miterlimit:10;" width="40.3" height="34.4"/>
</g>
<g id="L49">
	<polygon style="stroke:#358C79;stroke-miterlimit:10;" points="825,76.6 804.2,76.6 804.2,111.3 825.4,111.3 	"/>
</g>
<g id="L50">
	<rect x="775.7" y="76.5" style="stroke:#358C79;stroke-miterlimit:10;" width="19.2" height="34.8"/>
</g>
<g id="L51_x5F_52">
	<path style="stroke:#358C79;stroke-miterlimit:10;" d="M775.1,76.5h-21.4v-5.6l-6-4.2l-22.2,30.8
		c0,0,7.7,1.5,14.8,6.1c0,0,5,3.5,8.2,7.7l26.8,0L775.1,76.5z"/>
</g>
<g id="L53">
	<polygon style="stroke:#358C79;stroke-miterlimit:10;" points="728.7,70.3 704,70.3 704,95.6 	"/>
</g>
<g id="L54">
	<path style="stroke:#358C79;stroke-miterlimit:10;" d="M702.8,90.1L678.9,95l-0.4,25.5c0,0,4.6-11.5,10.9-15.4
		c0,0,5.3-4,10.1-5.6l3.2-1.1V90.1z"/>
</g>
<g id="L55">
	<polygon style="stroke:#358C79;stroke-miterlimit:10;" points="677.7,95.6 678,120.4 661.1,124.9 653.4,101.6 
		663.9,98.6 674.6,95.8 677.5,95 	"/>
</g>
<g id="L56">
	<polygon style="stroke:#358C79;stroke-miterlimit:10;" points="652.6,101.8 636.6,106.7 644.3,130.1 651.9,127.7 
		660.5,125 	"/>
</g>
<g id="L57">
	<polygon style="stroke:#358C79;stroke-miterlimit:10;" points="636.2,106.9 620.3,112.5 628,136 634.7,133.4 
		640.2,131.5 643.8,130.3 	"/>
</g>
<g id="L58_x5F_59">
	<polygon style="stroke:#358C79;stroke-miterlimit:10;" points="619.7,112.8 627.5,136.3 618.4,139.7 610.4,143.1 
		603.5,146.2 596.2,149.6 588.5,126.1 	"/>
</g>
<g id="L60">
	<polygon style="stroke:#358C79;stroke-miterlimit:10;" points="587.8,126.3 578.2,131 578.1,158.8 587.6,153.9 
		594.6,150.3 595.7,149.8 	"/>
</g>
<g id="L61_x5F_62">
	<polygon style="stroke:#358C79;stroke-miterlimit:10;" points="703.1,89.6 703.1,33.7 664.5,33.7 664.5,32.5 
		502.1,32.5 477.8,57.1 477.8,207.7 491.3,220.7 501,212.1 507.8,206.3 517,198.8 536,184.7 550.2,175.1 560.8,168.7 577.7,159.1 
		577.7,130.6 594,123.1 612.8,115 632.3,107.5 662.2,98.6 681.9,93.7 698.4,90.5 	"/>
</g>
<g id="L63">
	<polygon style="stroke:#358C79;stroke-miterlimit:10;" points="477.8,208.6 491.1,221.6 491.1,245.6 477.8,245.3 	"/>
</g>
<g id="L64">
	<polygon style="stroke:#358C79;stroke-miterlimit:10;" points="477.8,246.1 491.1,246.2 491,282.3 477.8,282.3 	"/>
</g>
<g id="L65">
	<polygon style="stroke:#358C79;stroke-miterlimit:10;" points="477.8,282.7 490.8,282.7 503.4,295.4 503.4,319.4 
		477.6,319.4 	"/>
</g>
<g id="L66_x5F_102_x5F_102A_x5F_103_x5F_104">
	<polygon style="stroke:#358C79;stroke-miterlimit:10;" points="565.2,208 602.4,208 602.4,177.4 588.5,184.4 
		574.8,192.1 558.7,202.5 547.2,210.7 541.1,215.5 541.1,246.3 565.2,246.2 	"/>
</g>
<g id="L67">
	<rect x="565.7" y="214.4" style="stroke:#358C79;stroke-miterlimit:10;" width="24.2" height="31.8"/>
</g>
<g id="L68">
	<rect x="590.8" y="214.4" style="stroke:#358C79;stroke-miterlimit:10;" width="12" height="31.8"/>
</g>
<g id="L69">
	<rect x="603.5" y="214.4" style="stroke:#358C79;stroke-miterlimit:10;" width="12.2" height="31.8"/>
</g>
<g id="L70">
	<polygon style="stroke:#358C79;stroke-miterlimit:10;" points="616.5,214.4 629,214.4 629,246.2 616.3,246.2 	"/>
</g>
<g id="L71">
	<rect x="636.9" y="216.9" style="stroke:#358C79;stroke-miterlimit:10;" width="16.1" height="29.3"/>
</g>
<g id="L72">
	<rect x="653.4" y="208.5" style="stroke:#358C79;stroke-miterlimit:10;" width="24.6" height="37.9"/>
</g>
<g id="L73">
	<polygon style="stroke:#358C79;stroke-miterlimit:10;" points="678.5,208.5 697.8,208.5 697.8,232.9 678.6,246.2 	"/>
</g>
<g id="L74_x5F_96">
	<polygon style="stroke:#358C79;stroke-miterlimit:10;" points="734,201.5 778.7,201.5 778.7,246.2 752.9,246.2 
		734,232.9 	"/>
</g>
<g id="L75">
	<rect x="789" y="201.4" style="stroke:#358C79;stroke-miterlimit:10;" width="14.3" height="44.8"/>
</g>
<g id="L76_x5F_77">
	<rect x="804.2" y="201.5" style="stroke:#358C79;stroke-miterlimit:10;" width="36.8" height="44.8"/>
</g>
<g id="L78">
	<rect x="841.5" y="201.5" style="stroke:#358C79;stroke-miterlimit:10;" width="12.1" height="44.6"/>
</g>
<g id="L79">
	<polygon style="stroke:#358C79;stroke-miterlimit:10;" points="878.7,201.4 878.7,232.7 872.9,232.7 859.6,246.2 
		854,246.2 854,201.2 	"/>
</g>
<g id="L80">
	<rect x="879" y="201.4" style="stroke:#358C79;stroke-miterlimit:10;" width="24.6" height="31.4"/>
</g>
<g id="L81">
	<rect x="904.1" y="201.4" style="stroke:#358C79;stroke-miterlimit:10;" width="24.6" height="31.4"/>
</g>
<g id="L82">
	<polygon style="stroke:#358C79;stroke-miterlimit:10;" points="929.2,201.4 929.2,232.9 947,232.9 954.9,225.1 
		954.9,201.4 	"/>
</g>
<g id="L83">
	<rect x="925.5" y="183.1" style="stroke:#358C79;stroke-miterlimit:10;" width="29.4" height="12.1"/>
</g>
<g id="L84">
	<rect x="925.5" y="170.3" style="stroke:#358C79;stroke-miterlimit:10;" width="29.4" height="11.9"/>
</g>
<g id="L85_x5F_86_x5F_87">
	<polygon style="stroke:#358C79;stroke-miterlimit:10;" points="904.1,141.5 947.8,141.5 954.6,145 954.6,169.8 
		904.1,169.8 	"/>
</g>
<g id="L88_x5F_89">
	<polygon style="stroke:#358C79;stroke-miterlimit:10;" points="903.6,141.5 841.5,141.5 841.5,170.5 804.5,170.5 
		804.5,195.1 828,195.1 828.7,195.1 828.7,190.2 853.8,190.2 853.8,195.2 903.6,195.2 	"/>
</g>
<g id="L90">
	<rect x="828.9" y="141.5" style="stroke:#358C79;stroke-miterlimit:10;" width="12.1" height="28.3"/>
</g>
<g id="L91_x5F_92">
	<polygon style="stroke:#358C79;stroke-miterlimit:10;" points="828.3,141.7 828.3,169.9 804.3,169.9 804.3,157 
		779.2,157 779.2,141.5 	"/>
</g>
<g id="L93_x5F_94_x5F_95">
	<path style="stroke:#358C79;stroke-miterlimit:10;" d="M778.2,141.4v54H734v-42.8c0,0,9.9-3.7,14.4-11L778.2,141.4z"
		/>
</g>
<g id="L97">
	<rect x="678.9" y="183.2" style="stroke:#358C79;stroke-miterlimit:10;" width="19" height="24.8"/>
</g>
<g id="L98">
	<polygon style="stroke:#358C79;stroke-miterlimit:10;" points="688.2,146.6 691.8,149.3 696.3,151.9 697.8,152.6 
		697.8,182.6 678.9,182.6 678.9,148.9 	"/>
</g>
<g id="L99">
	<polygon style="stroke:#358C79;stroke-miterlimit:10;" points="653.4,156.5 665,153 678.3,149.2 678.3,179.3 
		653.4,179.3 	"/>
</g>
<g id="L100">
	<polygon style="stroke:#358C79;stroke-miterlimit:10;" points="636.9,162.4 652.8,156.7 652.8,179.5 636.9,179.5 	"/>
</g>
<g id="L101">
	<path style="stroke:#358C79;stroke-miterlimit:10;" d="M603.3,177.4l23.9-10.6c0,0,0.2,32.6,0,32.6s-23.9,0-23.9,0
		V177.4z"/>
</g>
<g id="escadarolante_1_">
	<g id="escadarolante">
		
			<rect x="510" y="257.7" transform="matrix(1 5.012809e-003 -5.012809e-003 1 1.3199 -2.6768)" style="fill:#A3CCBE;stroke:#94A89F;stroke-width:0.25;stroke-miterlimit:10;" width="49.4" height="8.5"/>
		
			<rect x="557.8" y="259.3" transform="matrix(1 5.012809e-003 -5.012809e-003 1 1.3209 -2.7966)" style="fill:#97DDBF;stroke:#94A89F;stroke-width:0.25;stroke-miterlimit:10;" width="1.5" height="5.5"/>
		
			<rect x="556.2" y="259.3" transform="matrix(1 5.012809e-003 -5.012809e-003 1 1.3208 -2.7888)" style="fill:#97DDBF;stroke:#94A89F;stroke-width:0.25;stroke-miterlimit:10;" width="1.5" height="5.5"/>
		
			<rect x="554.7" y="259.3" transform="matrix(1 5.012809e-003 -5.012809e-003 1 1.3208 -2.7811)" style="fill:#97DDBF;stroke:#94A89F;stroke-width:0.25;stroke-miterlimit:10;" width="1.5" height="5.5"/>
		
			<rect x="553.1" y="259.3" transform="matrix(1 5.012809e-003 -5.012809e-003 1 1.3207 -2.7734)" style="fill:#97DDBF;stroke:#94A89F;stroke-width:0.25;stroke-miterlimit:10;" width="1.5" height="5.5"/>
		
			<rect x="551.6" y="259.3" transform="matrix(1 5.012809e-003 -5.012809e-003 1 1.3206 -2.7657)" style="fill:#97DDBF;stroke:#94A89F;stroke-width:0.25;stroke-miterlimit:10;" width="1.5" height="5.5"/>
		
			<rect x="550.1" y="259.3" transform="matrix(1 5.012809e-003 -5.012809e-003 1 1.3206 -2.7579)" style="fill:#97DDBF;stroke:#94A89F;stroke-width:0.25;stroke-miterlimit:10;" width="1.5" height="5.5"/>
		
			<rect x="548.5" y="259.3" transform="matrix(1 5.012809e-003 -5.012809e-003 1 1.3205 -2.7502)" style="fill:#97DDBF;stroke:#94A89F;stroke-width:0.25;stroke-miterlimit:10;" width="1.5" height="5.5"/>
		
			<rect x="547" y="259.3" transform="matrix(1 5.012809e-003 -5.012809e-003 1 1.3205 -2.7425)" style="fill:#97DDBF;stroke:#94A89F;stroke-width:0.25;stroke-miterlimit:10;" width="1.5" height="5.5"/>
		
			<rect x="545.4" y="259.3" transform="matrix(1 5.012809e-003 -5.012809e-003 1 1.3204 -2.7348)" style="fill:#97DDBF;stroke:#94A89F;stroke-width:0.25;stroke-miterlimit:10;" width="1.5" height="5.5"/>
		
			<rect x="543.9" y="259.3" transform="matrix(1 5.012809e-003 -5.012809e-003 1 1.3204 -2.727)" style="fill:#97DDBF;stroke:#94A89F;stroke-width:0.25;stroke-miterlimit:10;" width="1.5" height="5.5"/>
		
			<rect x="542.4" y="259.3" transform="matrix(1 5.012809e-003 -5.012809e-003 1 1.3203 -2.7193)" style="fill:#97DDBF;stroke:#94A89F;stroke-width:0.25;stroke-miterlimit:10;" width="1.5" height="5.5"/>
		
			<rect x="540.8" y="259.3" transform="matrix(1 5.012809e-003 -5.012809e-003 1 1.3202 -2.7116)" style="fill:#97DDBF;stroke:#94A89F;stroke-width:0.25;stroke-miterlimit:10;" width="1.5" height="5.5"/>
		
			<rect x="539.3" y="259.3" transform="matrix(1 5.012809e-003 -5.012809e-003 1 1.3202 -2.7039)" style="fill:#97DDBF;stroke:#94A89F;stroke-width:0.25;stroke-miterlimit:10;" width="1.5" height="5.5"/>
		
			<rect x="537.7" y="259.2" transform="matrix(1 5.012809e-003 -5.012809e-003 1 1.3201 -2.6961)" style="fill:#97DDBF;stroke:#94A89F;stroke-width:0.25;stroke-miterlimit:10;" width="1.5" height="5.5"/>
		
			<rect x="536.2" y="259.2" transform="matrix(1 5.012809e-003 -5.012809e-003 1 1.3201 -2.6884)" style="fill:#97DDBF;stroke:#94A89F;stroke-width:0.25;stroke-miterlimit:10;" width="1.5" height="5.5"/>
		
			<rect x="534.6" y="259.2" transform="matrix(1 5.012809e-003 -5.012809e-003 1 1.32 -2.6806)" style="fill:#97DDBF;stroke:#94A89F;stroke-width:0.25;stroke-miterlimit:10;" width="1.5" height="5.5"/>
		
			<rect x="533.1" y="259.2" transform="matrix(1 5.012809e-003 -5.012809e-003 1 1.3199 -2.6729)" style="fill:#97DDBF;stroke:#94A89F;stroke-width:0.25;stroke-miterlimit:10;" width="1.5" height="5.5"/>
		
			<rect x="531.6" y="259.2" transform="matrix(1 5.012809e-003 -5.012809e-003 1 1.3199 -2.6652)" style="fill:#97DDBF;stroke:#94A89F;stroke-width:0.25;stroke-miterlimit:10;" width="1.5" height="5.5"/>
		
			<rect x="530" y="259.2" transform="matrix(1 5.012809e-003 -5.012809e-003 1 1.3198 -2.6575)" style="fill:#97DDBF;stroke:#94A89F;stroke-width:0.25;stroke-miterlimit:10;" width="1.5" height="5.5"/>
		
			<rect x="528.5" y="259.2" transform="matrix(1 5.012809e-003 -5.012809e-003 1 1.3198 -2.6497)" style="fill:#97DDBF;stroke:#94A89F;stroke-width:0.25;stroke-miterlimit:10;" width="1.5" height="5.5"/>
		
			<rect x="526.9" y="259.2" transform="matrix(1 5.012809e-003 -5.012809e-003 1 1.3197 -2.642)" style="fill:#97DDBF;stroke:#94A89F;stroke-width:0.25;stroke-miterlimit:10;" width="1.5" height="5.5"/>
		
			<rect x="525.4" y="259.2" transform="matrix(1 5.012809e-003 -5.012809e-003 1 1.3197 -2.6343)" style="fill:#97DDBF;stroke:#94A89F;stroke-width:0.25;stroke-miterlimit:10;" width="1.5" height="5.5"/>
		
			<rect x="523.9" y="259.2" transform="matrix(1 5.012809e-003 -5.012809e-003 1 1.3196 -2.6266)" style="fill:#97DDBF;stroke:#94A89F;stroke-width:0.25;stroke-miterlimit:10;" width="1.5" height="5.5"/>
		
			<rect x="522.3" y="259.2" transform="matrix(1 5.012809e-003 -5.012809e-003 1 1.3195 -2.6188)" style="fill:#97DDBF;stroke:#94A89F;stroke-width:0.25;stroke-miterlimit:10;" width="1.5" height="5.5"/>
		
			<rect x="520.8" y="259.2" transform="matrix(1 5.012809e-003 -5.012809e-003 1 1.3195 -2.6111)" style="fill:#97DDBF;stroke:#94A89F;stroke-width:0.25;stroke-miterlimit:10;" width="1.5" height="5.5"/>
		
			<rect x="519.2" y="259.2" transform="matrix(1 5.012809e-003 -5.012809e-003 1 1.3194 -2.6034)" style="fill:#97DDBF;stroke:#94A89F;stroke-width:0.25;stroke-miterlimit:10;" width="1.5" height="5.5"/>
		
			<rect x="517.7" y="259.1" transform="matrix(1 5.012809e-003 -5.012809e-003 1 1.3194 -2.5957)" style="fill:#97DDBF;stroke:#94A89F;stroke-width:0.25;stroke-miterlimit:10;" width="1.5" height="5.5"/>
		
			<rect x="516.1" y="259.1" transform="matrix(1 5.012809e-003 -5.012809e-003 1 1.3193 -2.5879)" style="fill:#97DDBF;stroke:#94A89F;stroke-width:0.25;stroke-miterlimit:10;" width="1.5" height="5.5"/>
		
			<rect x="514.6" y="259.1" transform="matrix(1 5.012809e-003 -5.012809e-003 1 1.3193 -2.5802)" style="fill:#97DDBF;stroke:#94A89F;stroke-width:0.25;stroke-miterlimit:10;" width="1.5" height="5.5"/>
		
			<rect x="513.1" y="259.1" transform="matrix(1 5.012809e-003 -5.012809e-003 1 1.3192 -2.5724)" style="fill:#97DDBF;stroke:#94A89F;stroke-width:0.25;stroke-miterlimit:10;" width="1.5" height="5.5"/>
		
			<rect x="511.5" y="259.1" transform="matrix(1 5.012809e-003 -5.012809e-003 1 1.3191 -2.5647)" style="fill:#97DDBF;stroke:#94A89F;stroke-width:0.25;stroke-miterlimit:10;" width="1.5" height="5.5"/>
		
			<rect x="510" y="259.1" transform="matrix(1 5.012809e-003 -5.012809e-003 1 1.3191 -2.557)" style="fill:#97DDBF;stroke:#94A89F;stroke-width:0.25;stroke-miterlimit:10;" width="1.5" height="5.5"/>
		
			<rect x="509.6" y="268.7" transform="matrix(1 5.012809e-003 -5.012809e-003 1 1.3751 -2.6746)" style="fill:#A3CCBE;stroke:#94A89F;stroke-width:0.25;stroke-miterlimit:10;" width="49.4" height="8.5"/>
		
			<rect x="557.4" y="270.4" transform="matrix(1 5.012809e-003 -5.012809e-003 1 1.3761 -2.7945)" style="fill:#97DDBF;stroke:#94A89F;stroke-width:0.25;stroke-miterlimit:10;" width="1.5" height="5.5"/>
		
			<rect x="555.8" y="270.3" transform="matrix(1 5.012809e-003 -5.012809e-003 1 1.376 -2.7867)" style="fill:#97DDBF;stroke:#94A89F;stroke-width:0.25;stroke-miterlimit:10;" width="1.5" height="5.5"/>
		
			<rect x="554.3" y="270.3" transform="matrix(1 5.012809e-003 -5.012809e-003 1 1.3759 -2.779)" style="fill:#97DDBF;stroke:#94A89F;stroke-width:0.25;stroke-miterlimit:10;" width="1.5" height="5.5"/>
		
			<rect x="552.7" y="270.3" transform="matrix(1 5.012809e-003 -5.012809e-003 1 1.3759 -2.7712)" style="fill:#97DDBF;stroke:#94A89F;stroke-width:0.25;stroke-miterlimit:10;" width="1.5" height="5.5"/>
		
			<rect x="551.2" y="270.3" transform="matrix(1 5.012809e-003 -5.012809e-003 1 1.3758 -2.7635)" style="fill:#97DDBF;stroke:#94A89F;stroke-width:0.25;stroke-miterlimit:10;" width="1.5" height="5.5"/>
		
			<rect x="549.7" y="270.3" transform="matrix(1 5.012809e-003 -5.012809e-003 1 1.3758 -2.7558)" style="fill:#97DDBF;stroke:#94A89F;stroke-width:0.25;stroke-miterlimit:10;" width="1.5" height="5.5"/>
		
			<rect x="548.1" y="270.3" transform="matrix(1 5.012809e-003 -5.012809e-003 1 1.3757 -2.7481)" style="fill:#97DDBF;stroke:#94A89F;stroke-width:0.25;stroke-miterlimit:10;" width="1.5" height="5.5"/>
		
			<rect x="546.6" y="270.3" transform="matrix(1 5.012809e-003 -5.012809e-003 1 1.3756 -2.7403)" style="fill:#97DDBF;stroke:#94A89F;stroke-width:0.25;stroke-miterlimit:10;" width="1.5" height="5.5"/>
		
			<rect x="545" y="270.3" transform="matrix(1 5.012809e-003 -5.012809e-003 1 1.3756 -2.7326)" style="fill:#97DDBF;stroke:#94A89F;stroke-width:0.25;stroke-miterlimit:10;" width="1.5" height="5.5"/>
		
			<rect x="543.5" y="270.3" transform="matrix(1 5.012809e-003 -5.012809e-003 1 1.3755 -2.7249)" style="fill:#97DDBF;stroke:#94A89F;stroke-width:0.25;stroke-miterlimit:10;" width="1.5" height="5.5"/>
		
			<rect x="542" y="270.3" transform="matrix(1 5.012809e-003 -5.012809e-003 1 1.3755 -2.7172)" style="fill:#97DDBF;stroke:#94A89F;stroke-width:0.25;stroke-miterlimit:10;" width="1.5" height="5.5"/>
		
			<rect x="540.4" y="270.3" transform="matrix(1 5.012809e-003 -5.012809e-003 1 1.3754 -2.7094)" style="fill:#97DDBF;stroke:#94A89F;stroke-width:0.25;stroke-miterlimit:10;" width="1.5" height="5.5"/>
		
			<rect x="538.9" y="270.3" transform="matrix(1 5.012809e-003 -5.012809e-003 1 1.3754 -2.7017)" style="fill:#97DDBF;stroke:#94A89F;stroke-width:0.25;stroke-miterlimit:10;" width="1.5" height="5.5"/>
		
			<rect x="537.3" y="270.3" transform="matrix(1 5.012809e-003 -5.012809e-003 1 1.3753 -2.694)" style="fill:#97DDBF;stroke:#94A89F;stroke-width:0.25;stroke-miterlimit:10;" width="1.5" height="5.5"/>
		
			<rect x="535.8" y="270.2" transform="matrix(1 5.012809e-003 -5.012809e-003 1 1.3752 -2.6862)" style="fill:#97DDBF;stroke:#94A89F;stroke-width:0.25;stroke-miterlimit:10;" width="1.5" height="5.5"/>
		
			<rect x="534.2" y="270.2" transform="matrix(1 5.012809e-003 -5.012809e-003 1 1.3752 -2.6785)" style="fill:#97DDBF;stroke:#94A89F;stroke-width:0.25;stroke-miterlimit:10;" width="1.5" height="5.5"/>
		
			<rect x="532.7" y="270.2" transform="matrix(1 5.012809e-003 -5.012809e-003 1 1.3751 -2.6708)" style="fill:#97DDBF;stroke:#94A89F;stroke-width:0.25;stroke-miterlimit:10;" width="1.5" height="5.5"/>
		
			<rect x="531.2" y="270.2" transform="matrix(1 5.012809e-003 -5.012809e-003 1 1.3751 -2.663)" style="fill:#97DDBF;stroke:#94A89F;stroke-width:0.25;stroke-miterlimit:10;" width="1.5" height="5.5"/>
		
			<rect x="529.6" y="270.2" transform="matrix(1 5.012809e-003 -5.012809e-003 1 1.375 -2.6553)" style="fill:#97DDBF;stroke:#94A89F;stroke-width:0.25;stroke-miterlimit:10;" width="1.5" height="5.5"/>
		
			<rect x="528.1" y="270.2" transform="matrix(1 5.012809e-003 -5.012809e-003 1 1.375 -2.6476)" style="fill:#97DDBF;stroke:#94A89F;stroke-width:0.25;stroke-miterlimit:10;" width="1.5" height="5.5"/>
		
			<rect x="526.5" y="270.2" transform="matrix(1 5.012809e-003 -5.012809e-003 1 1.3749 -2.6399)" style="fill:#97DDBF;stroke:#94A89F;stroke-width:0.25;stroke-miterlimit:10;" width="1.5" height="5.5"/>
		
			<rect x="525" y="270.2" transform="matrix(1 5.012809e-003 -5.012809e-003 1 1.3748 -2.6321)" style="fill:#97DDBF;stroke:#94A89F;stroke-width:0.25;stroke-miterlimit:10;" width="1.5" height="5.5"/>
		
			<rect x="523.5" y="270.2" transform="matrix(1 5.012809e-003 -5.012809e-003 1 1.3748 -2.6244)" style="fill:#97DDBF;stroke:#94A89F;stroke-width:0.25;stroke-miterlimit:10;" width="1.5" height="5.5"/>
		
			<rect x="521.9" y="270.2" transform="matrix(1 5.012809e-003 -5.012809e-003 1 1.3747 -2.6167)" style="fill:#97DDBF;stroke:#94A89F;stroke-width:0.25;stroke-miterlimit:10;" width="1.5" height="5.5"/>
		
			<rect x="520.4" y="270.2" transform="matrix(1 5.012809e-003 -5.012809e-003 1 1.3747 -2.609)" style="fill:#97DDBF;stroke:#94A89F;stroke-width:0.25;stroke-miterlimit:10;" width="1.5" height="5.5"/>
		
			<rect x="518.8" y="270.2" transform="matrix(1 5.012809e-003 -5.012809e-003 1 1.3746 -2.6012)" style="fill:#97DDBF;stroke:#94A89F;stroke-width:0.25;stroke-miterlimit:10;" width="1.5" height="5.5"/>
		
			<rect x="517.3" y="270.2" transform="matrix(1 5.012809e-003 -5.012809e-003 1 1.3745 -2.5935)" style="fill:#97DDBF;stroke:#94A89F;stroke-width:0.25;stroke-miterlimit:10;" width="1.5" height="5.5"/>
		
			<rect x="515.7" y="270.1" transform="matrix(1 5.012809e-003 -5.012809e-003 1 1.3745 -2.5858)" style="fill:#97DDBF;stroke:#94A89F;stroke-width:0.25;stroke-miterlimit:10;" width="1.5" height="5.5"/>
		
			<rect x="514.2" y="270.1" transform="matrix(1 5.012809e-003 -5.012809e-003 1 1.3744 -2.578)" style="fill:#97DDBF;stroke:#94A89F;stroke-width:0.25;stroke-miterlimit:10;" width="1.5" height="5.5"/>
		
			<rect x="512.7" y="270.1" transform="matrix(1 5.012809e-003 -5.012809e-003 1 1.3744 -2.5703)" style="fill:#97DDBF;stroke:#94A89F;stroke-width:0.25;stroke-miterlimit:10;" width="1.5" height="5.5"/>
		
			<rect x="511.1" y="270.1" transform="matrix(1 5.012809e-003 -5.012809e-003 1 1.3743 -2.5626)" style="fill:#97DDBF;stroke:#94A89F;stroke-width:0.25;stroke-miterlimit:10;" width="1.5" height="5.5"/>
		
			<rect x="509.6" y="270.1" transform="matrix(1 5.012809e-003 -5.012809e-003 1 1.3743 -2.5548)" style="fill:#97DDBF;stroke:#94A89F;stroke-width:0.25;stroke-miterlimit:10;" width="1.5" height="5.5"/>
	</g>
	<g id="escadarolante_copy">
		
			<rect x="899.3" y="252.1" transform="matrix(1 5.012809e-003 -5.012809e-003 1 1.2967 -4.6287)" style="fill:#A3CCBE;stroke:#94A89F;stroke-width:0.25;stroke-miterlimit:10;" width="49.4" height="8.5"/>
		
			<rect x="947.1" y="253.7" transform="matrix(1 5.012809e-003 -5.012809e-003 1 1.2976 -4.7485)" style="fill:#97DDBF;stroke:#94A89F;stroke-width:0.25;stroke-miterlimit:10;" width="1.5" height="5.5"/>
		
			<rect x="945.6" y="253.7" transform="matrix(1 5.012809e-003 -5.012809e-003 1 1.2976 -4.7407)" style="fill:#97DDBF;stroke:#94A89F;stroke-width:0.25;stroke-miterlimit:10;" width="1.5" height="5.5"/>
		
			<rect x="944.1" y="253.7" transform="matrix(1 5.012809e-003 -5.012809e-003 1 1.2975 -4.733)" style="fill:#97DDBF;stroke:#94A89F;stroke-width:0.25;stroke-miterlimit:10;" width="1.5" height="5.5"/>
		
			<rect x="942.5" y="253.7" transform="matrix(1 5.012809e-003 -5.012809e-003 1 1.2975 -4.7253)" style="fill:#97DDBF;stroke:#94A89F;stroke-width:0.25;stroke-miterlimit:10;" width="1.5" height="5.5"/>
		
			<rect x="941" y="253.7" transform="matrix(1 5.012809e-003 -5.012809e-003 1 1.2974 -4.7176)" style="fill:#97DDBF;stroke:#94A89F;stroke-width:0.25;stroke-miterlimit:10;" width="1.5" height="5.5"/>
		
			<rect x="939.4" y="253.7" transform="matrix(1 5.012809e-003 -5.012809e-003 1 1.2974 -4.7098)" style="fill:#97DDBF;stroke:#94A89F;stroke-width:0.25;stroke-miterlimit:10;" width="1.5" height="5.5"/>
		
			<rect x="937.9" y="253.7" transform="matrix(1 5.012809e-003 -5.012809e-003 1 1.2973 -4.7021)" style="fill:#97DDBF;stroke:#94A89F;stroke-width:0.25;stroke-miterlimit:10;" width="1.5" height="5.5"/>
		
			<rect x="936.3" y="253.7" transform="matrix(1 5.012809e-003 -5.012809e-003 1 1.2972 -4.6944)" style="fill:#97DDBF;stroke:#94A89F;stroke-width:0.25;stroke-miterlimit:10;" width="1.5" height="5.5"/>
		
			<rect x="934.8" y="253.7" transform="matrix(1 5.012809e-003 -5.012809e-003 1 1.2972 -4.6867)" style="fill:#97DDBF;stroke:#94A89F;stroke-width:0.25;stroke-miterlimit:10;" width="1.5" height="5.5"/>
		
			<rect x="933.3" y="253.7" transform="matrix(1 5.012809e-003 -5.012809e-003 1 1.2971 -4.6789)" style="fill:#97DDBF;stroke:#94A89F;stroke-width:0.25;stroke-miterlimit:10;" width="1.5" height="5.5"/>
		
			<rect x="931.7" y="253.7" transform="matrix(1 5.012809e-003 -5.012809e-003 1 1.2971 -4.6712)" style="fill:#97DDBF;stroke:#94A89F;stroke-width:0.25;stroke-miterlimit:10;" width="1.5" height="5.5"/>
		
			<rect x="930.2" y="253.6" transform="matrix(1 5.012809e-003 -5.012809e-003 1 1.297 -4.6635)" style="fill:#97DDBF;stroke:#94A89F;stroke-width:0.25;stroke-miterlimit:10;" width="1.5" height="5.5"/>
		
			<rect x="928.6" y="253.6" transform="matrix(1 5.012809e-003 -5.012809e-003 1 1.2969 -4.6558)" style="fill:#97DDBF;stroke:#94A89F;stroke-width:0.25;stroke-miterlimit:10;" width="1.5" height="5.5"/>
		
			<rect x="927.1" y="253.6" transform="matrix(1 5.012809e-003 -5.012809e-003 1 1.2969 -4.648)" style="fill:#97DDBF;stroke:#94A89F;stroke-width:0.25;stroke-miterlimit:10;" width="1.5" height="5.5"/>
		
			<rect x="925.6" y="253.6" transform="matrix(1 5.012809e-003 -5.012809e-003 1 1.2968 -4.6403)" style="fill:#97DDBF;stroke:#94A89F;stroke-width:0.25;stroke-miterlimit:10;" width="1.5" height="5.5"/>
		
			<rect x="924" y="253.6" transform="matrix(1 5.012809e-003 -5.012809e-003 1 1.2968 -4.6325)" style="fill:#97DDBF;stroke:#94A89F;stroke-width:0.25;stroke-miterlimit:10;" width="1.5" height="5.5"/>
		
			<rect x="922.5" y="253.6" transform="matrix(1 5.012809e-003 -5.012809e-003 1 1.2967 -4.6248)" style="fill:#97DDBF;stroke:#94A89F;stroke-width:0.25;stroke-miterlimit:10;" width="1.5" height="5.5"/>
		
			<rect x="920.9" y="253.6" transform="matrix(1 5.012809e-003 -5.012809e-003 1 1.2967 -4.6171)" style="fill:#97DDBF;stroke:#94A89F;stroke-width:0.25;stroke-miterlimit:10;" width="1.5" height="5.5"/>
		
			<rect x="919.4" y="253.6" transform="matrix(1 5.012809e-003 -5.012809e-003 1 1.2966 -4.6094)" style="fill:#97DDBF;stroke:#94A89F;stroke-width:0.25;stroke-miterlimit:10;" width="1.5" height="5.5"/>
		
			<rect x="917.8" y="253.6" transform="matrix(1 5.012809e-003 -5.012809e-003 1 1.2965 -4.6016)" style="fill:#97DDBF;stroke:#94A89F;stroke-width:0.25;stroke-miterlimit:10;" width="1.5" height="5.5"/>
		
			<rect x="916.3" y="253.6" transform="matrix(1 5.012809e-003 -5.012809e-003 1 1.2965 -4.5939)" style="fill:#97DDBF;stroke:#94A89F;stroke-width:0.25;stroke-miterlimit:10;" width="1.5" height="5.5"/>
		
			<rect x="914.8" y="253.6" transform="matrix(1 5.012809e-003 -5.012809e-003 1 1.2964 -4.5862)" style="fill:#97DDBF;stroke:#94A89F;stroke-width:0.25;stroke-miterlimit:10;" width="1.5" height="5.5"/>
		
			<rect x="913.2" y="253.6" transform="matrix(1 5.012809e-003 -5.012809e-003 1 1.2964 -4.5785)" style="fill:#97DDBF;stroke:#94A89F;stroke-width:0.25;stroke-miterlimit:10;" width="1.5" height="5.5"/>
		
			<rect x="911.7" y="253.6" transform="matrix(1 5.012809e-003 -5.012809e-003 1 1.2963 -4.5707)" style="fill:#97DDBF;stroke:#94A89F;stroke-width:0.25;stroke-miterlimit:10;" width="1.5" height="5.5"/>
		
			<rect x="910.1" y="253.5" transform="matrix(1 5.012809e-003 -5.012809e-003 1 1.2962 -4.563)" style="fill:#97DDBF;stroke:#94A89F;stroke-width:0.25;stroke-miterlimit:10;" width="1.5" height="5.5"/>
		
			<rect x="908.6" y="253.5" transform="matrix(1 5.012809e-003 -5.012809e-003 1 1.2962 -4.5553)" style="fill:#97DDBF;stroke:#94A89F;stroke-width:0.25;stroke-miterlimit:10;" width="1.5" height="5.5"/>
		
			<rect x="907.1" y="253.5" transform="matrix(1 5.012809e-003 -5.012809e-003 1 1.2961 -4.5476)" style="fill:#97DDBF;stroke:#94A89F;stroke-width:0.25;stroke-miterlimit:10;" width="1.5" height="5.5"/>
		
			<rect x="905.5" y="253.5" transform="matrix(1 5.012809e-003 -5.012809e-003 1 1.2961 -4.5398)" style="fill:#97DDBF;stroke:#94A89F;stroke-width:0.25;stroke-miterlimit:10;" width="1.5" height="5.5"/>
		
			<rect x="904" y="253.5" transform="matrix(1 5.012809e-003 -5.012809e-003 1 1.296 -4.5321)" style="fill:#97DDBF;stroke:#94A89F;stroke-width:0.25;stroke-miterlimit:10;" width="1.5" height="5.5"/>
		
			<rect x="902.4" y="253.5" transform="matrix(1 5.012809e-003 -5.012809e-003 1 1.296 -4.5243)" style="fill:#97DDBF;stroke:#94A89F;stroke-width:0.25;stroke-miterlimit:10;" width="1.5" height="5.5"/>
		
			<rect x="900.9" y="253.5" transform="matrix(1 5.012809e-003 -5.012809e-003 1 1.2959 -4.5166)" style="fill:#97DDBF;stroke:#94A89F;stroke-width:0.25;stroke-miterlimit:10;" width="1.5" height="5.5"/>
		
			<rect x="899.3" y="253.5" transform="matrix(1 5.012809e-003 -5.012809e-003 1 1.2958 -4.5089)" style="fill:#97DDBF;stroke:#94A89F;stroke-width:0.25;stroke-miterlimit:10;" width="1.5" height="5.5"/>
		
			<rect x="898.9" y="263.1" transform="matrix(1 5.012809e-003 -5.012809e-003 1 1.3519 -4.6265)" style="fill:#A3CCBE;stroke:#94A89F;stroke-width:0.25;stroke-miterlimit:10;" width="49.4" height="8.5"/>
		
			<rect x="946.7" y="264.7" transform="matrix(1 5.012809e-003 -5.012809e-003 1 1.3528 -4.7464)" style="fill:#97DDBF;stroke:#94A89F;stroke-width:0.25;stroke-miterlimit:10;" width="1.5" height="5.5"/>
		
			<rect x="945.2" y="264.7" transform="matrix(1 5.012809e-003 -5.012809e-003 1 1.3528 -4.7386)" style="fill:#97DDBF;stroke:#94A89F;stroke-width:0.25;stroke-miterlimit:10;" width="1.5" height="5.5"/>
		
			<rect x="943.7" y="264.7" transform="matrix(1 5.012809e-003 -5.012809e-003 1 1.3527 -4.7309)" style="fill:#97DDBF;stroke:#94A89F;stroke-width:0.25;stroke-miterlimit:10;" width="1.5" height="5.5"/>
		
			<rect x="942.1" y="264.7" transform="matrix(1 5.012809e-003 -5.012809e-003 1 1.3526 -4.7231)" style="fill:#97DDBF;stroke:#94A89F;stroke-width:0.25;stroke-miterlimit:10;" width="1.5" height="5.5"/>
		
			<rect x="940.6" y="264.7" transform="matrix(1 5.012809e-003 -5.012809e-003 1 1.3526 -4.7154)" style="fill:#97DDBF;stroke:#94A89F;stroke-width:0.25;stroke-miterlimit:10;" width="1.5" height="5.5"/>
		
			<rect x="939" y="264.7" transform="matrix(1 5.012809e-003 -5.012809e-003 1 1.3525 -4.7077)" style="fill:#97DDBF;stroke:#94A89F;stroke-width:0.25;stroke-miterlimit:10;" width="1.5" height="5.5"/>
		
			<rect x="937.5" y="264.7" transform="matrix(1 5.012809e-003 -5.012809e-003 1 1.3525 -4.7)" style="fill:#97DDBF;stroke:#94A89F;stroke-width:0.25;stroke-miterlimit:10;" width="1.5" height="5.5"/>
		
			<rect x="935.9" y="264.7" transform="matrix(1 5.012809e-003 -5.012809e-003 1 1.3524 -4.6922)" style="fill:#97DDBF;stroke:#94A89F;stroke-width:0.25;stroke-miterlimit:10;" width="1.5" height="5.5"/>
		
			<rect x="934.4" y="264.7" transform="matrix(1 5.012809e-003 -5.012809e-003 1 1.3524 -4.6845)" style="fill:#97DDBF;stroke:#94A89F;stroke-width:0.25;stroke-miterlimit:10;" width="1.5" height="5.5"/>
		
			<rect x="932.9" y="264.7" transform="matrix(1 5.012809e-003 -5.012809e-003 1 1.3523 -4.6768)" style="fill:#97DDBF;stroke:#94A89F;stroke-width:0.25;stroke-miterlimit:10;" width="1.5" height="5.5"/>
		
			<rect x="931.3" y="264.7" transform="matrix(1 5.012809e-003 -5.012809e-003 1 1.3522 -4.6691)" style="fill:#97DDBF;stroke:#94A89F;stroke-width:0.25;stroke-miterlimit:10;" width="1.5" height="5.5"/>
		
			<rect x="929.8" y="264.7" transform="matrix(1 5.012809e-003 -5.012809e-003 1 1.3522 -4.6613)" style="fill:#97DDBF;stroke:#94A89F;stroke-width:0.25;stroke-miterlimit:10;" width="1.5" height="5.5"/>
		
			<rect x="928.2" y="264.6" transform="matrix(1 5.012809e-003 -5.012809e-003 1 1.3521 -4.6536)" style="fill:#97DDBF;stroke:#94A89F;stroke-width:0.25;stroke-miterlimit:10;" width="1.5" height="5.5"/>
		
			<rect x="926.7" y="264.6" transform="matrix(1 5.012809e-003 -5.012809e-003 1 1.3521 -4.6459)" style="fill:#97DDBF;stroke:#94A89F;stroke-width:0.25;stroke-miterlimit:10;" width="1.5" height="5.5"/>
		
			<rect x="925.2" y="264.6" transform="matrix(1 5.012809e-003 -5.012809e-003 1 1.352 -4.6381)" style="fill:#97DDBF;stroke:#94A89F;stroke-width:0.25;stroke-miterlimit:10;" width="1.5" height="5.5"/>
		
			<rect x="923.6" y="264.6" transform="matrix(1 5.012809e-003 -5.012809e-003 1 1.3519 -4.6304)" style="fill:#97DDBF;stroke:#94A89F;stroke-width:0.25;stroke-miterlimit:10;" width="1.5" height="5.5"/>
		
			<rect x="922.1" y="264.6" transform="matrix(1 5.012809e-003 -5.012809e-003 1 1.3519 -4.6227)" style="fill:#97DDBF;stroke:#94A89F;stroke-width:0.25;stroke-miterlimit:10;" width="1.5" height="5.5"/>
		
			<rect x="920.5" y="264.6" transform="matrix(1 5.012809e-003 -5.012809e-003 1 1.3518 -4.6149)" style="fill:#97DDBF;stroke:#94A89F;stroke-width:0.25;stroke-miterlimit:10;" width="1.5" height="5.5"/>
		
			<rect x="919" y="264.6" transform="matrix(1 5.012809e-003 -5.012809e-003 1 1.3518 -4.6072)" style="fill:#97DDBF;stroke:#94A89F;stroke-width:0.25;stroke-miterlimit:10;" width="1.5" height="5.5"/>
		
			<rect x="917.4" y="264.6" transform="matrix(1 5.012809e-003 -5.012809e-003 1 1.3517 -4.5995)" style="fill:#97DDBF;stroke:#94A89F;stroke-width:0.25;stroke-miterlimit:10;" width="1.5" height="5.5"/>
		
			<rect x="915.9" y="264.6" transform="matrix(1 5.012809e-003 -5.012809e-003 1 1.3517 -4.5918)" style="fill:#97DDBF;stroke:#94A89F;stroke-width:0.25;stroke-miterlimit:10;" width="1.5" height="5.5"/>
		
			<rect x="914.4" y="264.6" transform="matrix(1 5.012809e-003 -5.012809e-003 1 1.3516 -4.584)" style="fill:#97DDBF;stroke:#94A89F;stroke-width:0.25;stroke-miterlimit:10;" width="1.5" height="5.5"/>
		
			<rect x="912.8" y="264.6" transform="matrix(1 5.012809e-003 -5.012809e-003 1 1.3515 -4.5763)" style="fill:#97DDBF;stroke:#94A89F;stroke-width:0.25;stroke-miterlimit:10;" width="1.5" height="5.5"/>
		
			<rect x="911.3" y="264.6" transform="matrix(1 5.012809e-003 -5.012809e-003 1 1.3515 -4.5686)" style="fill:#97DDBF;stroke:#94A89F;stroke-width:0.25;stroke-miterlimit:10;" width="1.5" height="5.5"/>
		
			<rect x="909.7" y="264.6" transform="matrix(1 5.012809e-003 -5.012809e-003 1 1.3514 -4.5609)" style="fill:#97DDBF;stroke:#94A89F;stroke-width:0.25;stroke-miterlimit:10;" width="1.5" height="5.5"/>
		
			<rect x="908.2" y="264.5" transform="matrix(1 5.012809e-003 -5.012809e-003 1 1.3514 -4.5531)" style="fill:#97DDBF;stroke:#94A89F;stroke-width:0.25;stroke-miterlimit:10;" width="1.5" height="5.5"/>
		
			<rect x="906.7" y="264.5" transform="matrix(1 5.012809e-003 -5.012809e-003 1 1.3513 -4.5454)" style="fill:#97DDBF;stroke:#94A89F;stroke-width:0.25;stroke-miterlimit:10;" width="1.5" height="5.5"/>
		
			<rect x="905.1" y="264.5" transform="matrix(1 5.012809e-003 -5.012809e-003 1 1.3513 -4.5377)" style="fill:#97DDBF;stroke:#94A89F;stroke-width:0.25;stroke-miterlimit:10;" width="1.5" height="5.5"/>
		
			<rect x="903.6" y="264.5" transform="matrix(1 5.012809e-003 -5.012809e-003 1 1.3512 -4.5299)" style="fill:#97DDBF;stroke:#94A89F;stroke-width:0.25;stroke-miterlimit:10;" width="1.5" height="5.5"/>
		
			<rect x="902" y="264.5" transform="matrix(1 5.012809e-003 -5.012809e-003 1 1.3511 -4.5222)" style="fill:#97DDBF;stroke:#94A89F;stroke-width:0.25;stroke-miterlimit:10;" width="1.5" height="5.5"/>
		
			<rect x="900.5" y="264.5" transform="matrix(1 5.012809e-003 -5.012809e-003 1 1.3511 -4.5145)" style="fill:#97DDBF;stroke:#94A89F;stroke-width:0.25;stroke-miterlimit:10;" width="1.5" height="5.5"/>
		
			<rect x="898.9" y="264.5" transform="matrix(1 5.012809e-003 -5.012809e-003 1 1.351 -4.5067)" style="fill:#97DDBF;stroke:#94A89F;stroke-width:0.25;stroke-miterlimit:10;" width="1.5" height="5.5"/>
	</g>
	<g id="escadarolante_copy_2">
		
			<rect x="954.1" y="119" transform="matrix(1 5.012809e-003 -5.012809e-003 1 0.6299 -4.9049)" style="fill:#A3CCBE;stroke:#94A89F;stroke-width:0.25;stroke-miterlimit:10;" width="49.4" height="8.5"/>
		
			<rect x="1001.9" y="120.6" transform="matrix(1 5.012809e-003 -5.012809e-003 1 0.6309 -5.0247)" style="fill:#97DDBF;stroke:#94A89F;stroke-width:0.25;stroke-miterlimit:10;" width="1.5" height="5.5"/>
		
			<rect x="1000.4" y="120.6" transform="matrix(1 5.012809e-003 -5.012809e-003 1 0.6308 -5.017)" style="fill:#97DDBF;stroke:#94A89F;stroke-width:0.25;stroke-miterlimit:10;" width="1.5" height="5.5"/>
		
			<rect x="998.8" y="120.6" transform="matrix(1 5.012809e-003 -5.012809e-003 1 0.6307 -5.0092)" style="fill:#97DDBF;stroke:#94A89F;stroke-width:0.25;stroke-miterlimit:10;" width="1.5" height="5.5"/>
		
			<rect x="997.3" y="120.6" transform="matrix(1 5.012809e-003 -5.012809e-003 1 0.6307 -5.0015)" style="fill:#97DDBF;stroke:#94A89F;stroke-width:0.25;stroke-miterlimit:10;" width="1.5" height="5.5"/>
		
			<rect x="995.7" y="120.6" transform="matrix(1 5.012809e-003 -5.012809e-003 1 0.6306 -4.9938)" style="fill:#97DDBF;stroke:#94A89F;stroke-width:0.25;stroke-miterlimit:10;" width="1.5" height="5.5"/>
		
			<rect x="994.2" y="120.5" transform="matrix(1 5.012809e-003 -5.012809e-003 1 0.6306 -4.986)" style="fill:#97DDBF;stroke:#94A89F;stroke-width:0.25;stroke-miterlimit:10;" width="1.5" height="5.5"/>
		
			<rect x="992.7" y="120.5" transform="matrix(1 5.012809e-003 -5.012809e-003 1 0.6305 -4.9783)" style="fill:#97DDBF;stroke:#94A89F;stroke-width:0.25;stroke-miterlimit:10;" width="1.5" height="5.5"/>
		
			<rect x="991.1" y="120.5" transform="matrix(1 5.012809e-003 -5.012809e-003 1 0.6305 -4.9706)" style="fill:#97DDBF;stroke:#94A89F;stroke-width:0.25;stroke-miterlimit:10;" width="1.5" height="5.5"/>
		
			<rect x="989.6" y="120.5" transform="matrix(1 5.012809e-003 -5.012809e-003 1 0.6304 -4.9629)" style="fill:#97DDBF;stroke:#94A89F;stroke-width:0.25;stroke-miterlimit:10;" width="1.5" height="5.5"/>
		
			<rect x="988" y="120.5" transform="matrix(1 5.012809e-003 -5.012809e-003 1 0.6303 -4.9551)" style="fill:#97DDBF;stroke:#94A89F;stroke-width:0.25;stroke-miterlimit:10;" width="1.5" height="5.5"/>
		
			<rect x="986.5" y="120.5" transform="matrix(1 5.012809e-003 -5.012809e-003 1 0.6303 -4.9474)" style="fill:#97DDBF;stroke:#94A89F;stroke-width:0.25;stroke-miterlimit:10;" width="1.5" height="5.5"/>
		
			<rect x="984.9" y="120.5" transform="matrix(1 5.012809e-003 -5.012809e-003 1 0.6302 -4.9397)" style="fill:#97DDBF;stroke:#94A89F;stroke-width:0.25;stroke-miterlimit:10;" width="1.5" height="5.5"/>
		
			<rect x="983.4" y="120.5" transform="matrix(1 5.012809e-003 -5.012809e-003 1 0.6302 -4.932)" style="fill:#97DDBF;stroke:#94A89F;stroke-width:0.25;stroke-miterlimit:10;" width="1.5" height="5.5"/>
		
			<rect x="981.9" y="120.5" transform="matrix(1 5.012809e-003 -5.012809e-003 1 0.6301 -4.9242)" style="fill:#97DDBF;stroke:#94A89F;stroke-width:0.25;stroke-miterlimit:10;" width="1.5" height="5.5"/>
		
			<rect x="980.3" y="120.5" transform="matrix(1 5.012809e-003 -5.012809e-003 1 0.63 -4.9165)" style="fill:#97DDBF;stroke:#94A89F;stroke-width:0.25;stroke-miterlimit:10;" width="1.5" height="5.5"/>
		
			<rect x="978.8" y="120.5" transform="matrix(1 5.012809e-003 -5.012809e-003 1 0.63 -4.9088)" style="fill:#97DDBF;stroke:#94A89F;stroke-width:0.25;stroke-miterlimit:10;" width="1.5" height="5.5"/>
		
			<rect x="977.2" y="120.5" transform="matrix(1 5.012809e-003 -5.012809e-003 1 0.6299 -4.901)" style="fill:#97DDBF;stroke:#94A89F;stroke-width:0.25;stroke-miterlimit:10;" width="1.5" height="5.5"/>
		
			<rect x="975.7" y="120.4" transform="matrix(1 5.012809e-003 -5.012809e-003 1 0.6299 -4.8933)" style="fill:#97DDBF;stroke:#94A89F;stroke-width:0.25;stroke-miterlimit:10;" width="1.5" height="5.5"/>
		
			<rect x="974.2" y="120.4" transform="matrix(1 5.012809e-003 -5.012809e-003 1 0.6298 -4.8856)" style="fill:#97DDBF;stroke:#94A89F;stroke-width:0.25;stroke-miterlimit:10;" width="1.5" height="5.5"/>
		
			<rect x="972.6" y="120.4" transform="matrix(1 5.012809e-003 -5.012809e-003 1 0.6298 -4.8778)" style="fill:#97DDBF;stroke:#94A89F;stroke-width:0.25;stroke-miterlimit:10;" width="1.5" height="5.5"/>
		
			<rect x="971.1" y="120.4" transform="matrix(1 5.012809e-003 -5.012809e-003 1 0.6297 -4.8701)" style="fill:#97DDBF;stroke:#94A89F;stroke-width:0.25;stroke-miterlimit:10;" width="1.5" height="5.5"/>
		
			<rect x="969.5" y="120.4" transform="matrix(1 5.012809e-003 -5.012809e-003 1 0.6296 -4.8624)" style="fill:#97DDBF;stroke:#94A89F;stroke-width:0.25;stroke-miterlimit:10;" width="1.5" height="5.5"/>
		
			<rect x="968" y="120.4" transform="matrix(1 5.012809e-003 -5.012809e-003 1 0.6296 -4.8547)" style="fill:#97DDBF;stroke:#94A89F;stroke-width:0.25;stroke-miterlimit:10;" width="1.5" height="5.5"/>
		
			<rect x="966.4" y="120.4" transform="matrix(1 5.012809e-003 -5.012809e-003 1 0.6295 -4.8469)" style="fill:#97DDBF;stroke:#94A89F;stroke-width:0.25;stroke-miterlimit:10;" width="1.5" height="5.5"/>
		
			<rect x="964.9" y="120.4" transform="matrix(1 5.012809e-003 -5.012809e-003 1 0.6295 -4.8392)" style="fill:#97DDBF;stroke:#94A89F;stroke-width:0.25;stroke-miterlimit:10;" width="1.5" height="5.5"/>
		
			<rect x="963.4" y="120.4" transform="matrix(1 5.012809e-003 -5.012809e-003 1 0.6294 -4.8315)" style="fill:#97DDBF;stroke:#94A89F;stroke-width:0.25;stroke-miterlimit:10;" width="1.5" height="5.5"/>
		
			<rect x="961.8" y="120.4" transform="matrix(1 5.012809e-003 -5.012809e-003 1 0.6293 -4.8238)" style="fill:#97DDBF;stroke:#94A89F;stroke-width:0.25;stroke-miterlimit:10;" width="1.5" height="5.5"/>
		
			<rect x="960.3" y="120.4" transform="matrix(1 5.012809e-003 -5.012809e-003 1 0.6293 -4.816)" style="fill:#97DDBF;stroke:#94A89F;stroke-width:0.25;stroke-miterlimit:10;" width="1.5" height="5.5"/>
		
			<rect x="958.7" y="120.4" transform="matrix(1 5.012809e-003 -5.012809e-003 1 0.6292 -4.8083)" style="fill:#97DDBF;stroke:#94A89F;stroke-width:0.25;stroke-miterlimit:10;" width="1.5" height="5.5"/>
		
			<rect x="957.2" y="120.4" transform="matrix(1 5.012809e-003 -5.012809e-003 1 0.6292 -4.8005)" style="fill:#97DDBF;stroke:#94A89F;stroke-width:0.25;stroke-miterlimit:10;" width="1.5" height="5.5"/>
		
			<rect x="955.7" y="120.3" transform="matrix(1 5.012809e-003 -5.012809e-003 1 0.6291 -4.7929)" style="fill:#97DDBF;stroke:#94A89F;stroke-width:0.25;stroke-miterlimit:10;" width="1.5" height="5.5"/>
		
			<rect x="954.1" y="120.3" transform="matrix(1 5.012809e-003 -5.012809e-003 1 0.6291 -4.7851)" style="fill:#97DDBF;stroke:#94A89F;stroke-width:0.25;stroke-miterlimit:10;" width="1.5" height="5.5"/>
		
			<rect x="953.7" y="130" transform="matrix(1 5.012809e-003 -5.012809e-003 1 0.6851 -4.9027)" style="fill:#A3CCBE;stroke:#94A89F;stroke-width:0.25;stroke-miterlimit:10;" width="49.4" height="8.5"/>
		
			<rect x="1001.5" y="131.6" transform="matrix(1 5.012809e-003 -5.012809e-003 1 0.686 -5.0226)" style="fill:#97DDBF;stroke:#94A89F;stroke-width:0.25;stroke-miterlimit:10;" width="1.5" height="5.5"/>
		
			<rect x="1000" y="131.6" transform="matrix(1 5.012809e-003 -5.012809e-003 1 0.686 -5.0148)" style="fill:#97DDBF;stroke:#94A89F;stroke-width:0.25;stroke-miterlimit:10;" width="1.5" height="5.5"/>
		
			<rect x="998.4" y="131.6" transform="matrix(1 5.012809e-003 -5.012809e-003 1 0.6859 -5.0071)" style="fill:#97DDBF;stroke:#94A89F;stroke-width:0.25;stroke-miterlimit:10;" width="1.5" height="5.5"/>
		
			<rect x="996.9" y="131.6" transform="matrix(1 5.012809e-003 -5.012809e-003 1 0.6859 -4.9993)" style="fill:#97DDBF;stroke:#94A89F;stroke-width:0.25;stroke-miterlimit:10;" width="1.5" height="5.5"/>
		
			<rect x="995.3" y="131.6" transform="matrix(1 5.012809e-003 -5.012809e-003 1 0.6858 -4.9916)" style="fill:#97DDBF;stroke:#94A89F;stroke-width:0.25;stroke-miterlimit:10;" width="1.5" height="5.5"/>
		
			<rect x="993.8" y="131.6" transform="matrix(1 5.012809e-003 -5.012809e-003 1 0.6857 -4.9839)" style="fill:#97DDBF;stroke:#94A89F;stroke-width:0.25;stroke-miterlimit:10;" width="1.5" height="5.5"/>
		
			<rect x="992.3" y="131.5" transform="matrix(1 5.012809e-003 -5.012809e-003 1 0.6857 -4.9762)" style="fill:#97DDBF;stroke:#94A89F;stroke-width:0.25;stroke-miterlimit:10;" width="1.5" height="5.5"/>
		
			<rect x="990.7" y="131.5" transform="matrix(1 5.012809e-003 -5.012809e-003 1 0.6856 -4.9684)" style="fill:#97DDBF;stroke:#94A89F;stroke-width:0.25;stroke-miterlimit:10;" width="1.5" height="5.5"/>
		
			<rect x="989.2" y="131.5" transform="matrix(1 5.012809e-003 -5.012809e-003 1 0.6856 -4.9607)" style="fill:#97DDBF;stroke:#94A89F;stroke-width:0.25;stroke-miterlimit:10;" width="1.5" height="5.5"/>
		
			<rect x="987.6" y="131.5" transform="matrix(1 5.012809e-003 -5.012809e-003 1 0.6855 -4.953)" style="fill:#97DDBF;stroke:#94A89F;stroke-width:0.25;stroke-miterlimit:10;" width="1.5" height="5.5"/>
		
			<rect x="986.1" y="131.5" transform="matrix(1 5.012809e-003 -5.012809e-003 1 0.6855 -4.9453)" style="fill:#97DDBF;stroke:#94A89F;stroke-width:0.25;stroke-miterlimit:10;" width="1.5" height="5.5"/>
		
			<rect x="984.5" y="131.5" transform="matrix(1 5.012809e-003 -5.012809e-003 1 0.6854 -4.9375)" style="fill:#97DDBF;stroke:#94A89F;stroke-width:0.25;stroke-miterlimit:10;" width="1.5" height="5.5"/>
		
			<rect x="983" y="131.5" transform="matrix(1 5.012809e-003 -5.012809e-003 1 0.6853 -4.9298)" style="fill:#97DDBF;stroke:#94A89F;stroke-width:0.25;stroke-miterlimit:10;" width="1.5" height="5.5"/>
		
			<rect x="981.5" y="131.5" transform="matrix(1 5.012809e-003 -5.012809e-003 1 0.6853 -4.9221)" style="fill:#97DDBF;stroke:#94A89F;stroke-width:0.25;stroke-miterlimit:10;" width="1.5" height="5.5"/>
		
			<rect x="979.9" y="131.5" transform="matrix(1 5.012809e-003 -5.012809e-003 1 0.6852 -4.9144)" style="fill:#97DDBF;stroke:#94A89F;stroke-width:0.25;stroke-miterlimit:10;" width="1.5" height="5.5"/>
		
			<rect x="978.4" y="131.5" transform="matrix(1 5.012809e-003 -5.012809e-003 1 0.6852 -4.9066)" style="fill:#97DDBF;stroke:#94A89F;stroke-width:0.25;stroke-miterlimit:10;" width="1.5" height="5.5"/>
		
			<rect x="976.8" y="131.5" transform="matrix(1 5.012809e-003 -5.012809e-003 1 0.6851 -4.8989)" style="fill:#97DDBF;stroke:#94A89F;stroke-width:0.25;stroke-miterlimit:10;" width="1.5" height="5.5"/>
		
			<rect x="975.3" y="131.5" transform="matrix(1 5.012809e-003 -5.012809e-003 1 0.6851 -4.8911)" style="fill:#97DDBF;stroke:#94A89F;stroke-width:0.25;stroke-miterlimit:10;" width="1.5" height="5.5"/>
		
			<rect x="973.8" y="131.5" transform="matrix(1 5.012809e-003 -5.012809e-003 1 0.685 -4.8834)" style="fill:#97DDBF;stroke:#94A89F;stroke-width:0.25;stroke-miterlimit:10;" width="1.5" height="5.5"/>
		
			<rect x="972.2" y="131.4" transform="matrix(1 5.012809e-003 -5.012809e-003 1 0.6849 -4.8757)" style="fill:#97DDBF;stroke:#94A89F;stroke-width:0.25;stroke-miterlimit:10;" width="1.5" height="5.5"/>
		
			<rect x="970.7" y="131.4" transform="matrix(1 5.012809e-003 -5.012809e-003 1 0.6849 -4.868)" style="fill:#97DDBF;stroke:#94A89F;stroke-width:0.25;stroke-miterlimit:10;" width="1.5" height="5.5"/>
		
			<rect x="969.1" y="131.4" transform="matrix(1 5.012809e-003 -5.012809e-003 1 0.6848 -4.8602)" style="fill:#97DDBF;stroke:#94A89F;stroke-width:0.25;stroke-miterlimit:10;" width="1.5" height="5.5"/>
		
			<rect x="967.6" y="131.4" transform="matrix(1 5.012809e-003 -5.012809e-003 1 0.6848 -4.8525)" style="fill:#97DDBF;stroke:#94A89F;stroke-width:0.25;stroke-miterlimit:10;" width="1.5" height="5.5"/>
		
			<rect x="966" y="131.4" transform="matrix(1 5.012809e-003 -5.012809e-003 1 0.6847 -4.8448)" style="fill:#97DDBF;stroke:#94A89F;stroke-width:0.25;stroke-miterlimit:10;" width="1.5" height="5.5"/>
		
			<rect x="964.5" y="131.4" transform="matrix(1 5.012809e-003 -5.012809e-003 1 0.6846 -4.8371)" style="fill:#97DDBF;stroke:#94A89F;stroke-width:0.25;stroke-miterlimit:10;" width="1.5" height="5.5"/>
		
			<rect x="963" y="131.4" transform="matrix(1 5.012809e-003 -5.012809e-003 1 0.6846 -4.8293)" style="fill:#97DDBF;stroke:#94A89F;stroke-width:0.25;stroke-miterlimit:10;" width="1.5" height="5.5"/>
		
			<rect x="961.4" y="131.4" transform="matrix(1 5.012809e-003 -5.012809e-003 1 0.6845 -4.8216)" style="fill:#97DDBF;stroke:#94A89F;stroke-width:0.25;stroke-miterlimit:10;" width="1.5" height="5.5"/>
		
			<rect x="959.9" y="131.4" transform="matrix(1 5.012809e-003 -5.012809e-003 1 0.6845 -4.8139)" style="fill:#97DDBF;stroke:#94A89F;stroke-width:0.25;stroke-miterlimit:10;" width="1.5" height="5.5"/>
		
			<rect x="958.3" y="131.4" transform="matrix(1 5.012809e-003 -5.012809e-003 1 0.6844 -4.8062)" style="fill:#97DDBF;stroke:#94A89F;stroke-width:0.25;stroke-miterlimit:10;" width="1.5" height="5.5"/>
		
			<rect x="956.8" y="131.4" transform="matrix(1 5.012809e-003 -5.012809e-003 1 0.6844 -4.7984)" style="fill:#97DDBF;stroke:#94A89F;stroke-width:0.25;stroke-miterlimit:10;" width="1.5" height="5.5"/>
		
			<rect x="955.3" y="131.4" transform="matrix(1 5.012809e-003 -5.012809e-003 1 0.6843 -4.7907)" style="fill:#97DDBF;stroke:#94A89F;stroke-width:0.25;stroke-miterlimit:10;" width="1.5" height="5.5"/>
		
			<rect x="953.7" y="131.3" transform="matrix(1 5.012809e-003 -5.012809e-003 1 0.6842 -4.783)" style="fill:#97DDBF;stroke:#94A89F;stroke-width:0.25;stroke-miterlimit:10;" width="1.5" height="5.5"/>
	</g>
	<g id="escadarolante_copy_3">
		
			<rect x="684.4" y="187.8" transform="matrix(5.012809e-003 -1 1 5.012809e-003 513.4983 900.144)" style="fill:#A3CCBE;stroke:#94A89F;stroke-width:0.25;stroke-miterlimit:10;" width="49.4" height="8.5"/>
		
			<rect x="708.4" y="165.4" transform="matrix(5.012809e-003 -1 1 5.012809e-003 537.5314 876.4949)" style="fill:#97DDBF;stroke:#94A89F;stroke-width:0.25;stroke-miterlimit:10;" width="1.5" height="5.5"/>
		
			<rect x="708.4" y="166.9" transform="matrix(5.012809e-003 -1 1 5.012809e-003 535.9769 878.0262)" style="fill:#97DDBF;stroke:#94A89F;stroke-width:0.25;stroke-miterlimit:10;" width="1.5" height="5.5"/>
		
			<rect x="708.4" y="168.5" transform="matrix(5.012809e-003 -1 1 5.012809e-003 534.4315 879.5485)" style="fill:#97DDBF;stroke:#94A89F;stroke-width:0.25;stroke-miterlimit:10;" width="1.5" height="5.5"/>
		
			<rect x="708.4" y="170" transform="matrix(5.012809e-003 -1 1 5.012809e-003 532.877 881.0798)" style="fill:#97DDBF;stroke:#94A89F;stroke-width:0.25;stroke-miterlimit:10;" width="1.5" height="5.5"/>
		
			<rect x="708.4" y="171.5" transform="matrix(5.012809e-003 -1 1 5.012809e-003 531.3317 882.6022)" style="fill:#97DDBF;stroke:#94A89F;stroke-width:0.25;stroke-miterlimit:10;" width="1.5" height="5.5"/>
		
			<rect x="708.4" y="173.1" transform="matrix(5.012809e-003 -1 1 5.012809e-003 529.7772 884.1335)" style="fill:#97DDBF;stroke:#94A89F;stroke-width:0.25;stroke-miterlimit:10;" width="1.5" height="5.5"/>
		
			<rect x="708.4" y="174.6" transform="matrix(5.012809e-003 -1 1 5.012809e-003 528.2347 885.6528)" style="fill:#97DDBF;stroke:#94A89F;stroke-width:0.25;stroke-miterlimit:10;" width="1.5" height="5.5"/>
		
			<rect x="708.4" y="176.2" transform="matrix(5.012809e-003 -1 1 5.012809e-003 526.6802 887.1841)" style="fill:#97DDBF;stroke:#94A89F;stroke-width:0.25;stroke-miterlimit:10;" width="1.5" height="5.5"/>
		
			<rect x="708.4" y="177.7" transform="matrix(5.012809e-003 -1 1 5.012809e-003 525.1348 888.7065)" style="fill:#97DDBF;stroke:#94A89F;stroke-width:0.25;stroke-miterlimit:10;" width="1.5" height="5.5"/>
		
			<rect x="708.4" y="179.3" transform="matrix(5.012809e-003 -1 1 5.012809e-003 523.5804 890.2377)" style="fill:#97DDBF;stroke:#94A89F;stroke-width:0.25;stroke-miterlimit:10;" width="1.5" height="5.5"/>
		
			<rect x="708.4" y="180.8" transform="matrix(5.012809e-003 -1 1 5.012809e-003 522.035 891.7601)" style="fill:#97DDBF;stroke:#94A89F;stroke-width:0.25;stroke-miterlimit:10;" width="1.5" height="5.5"/>
		
			<rect x="708.4" y="182.3" transform="matrix(5.012809e-003 -1 1 5.012809e-003 520.4805 893.2914)" style="fill:#97DDBF;stroke:#94A89F;stroke-width:0.25;stroke-miterlimit:10;" width="1.5" height="5.5"/>
		
			<rect x="708.4" y="183.9" transform="matrix(5.012809e-003 -1 1 5.012809e-003 518.9383 894.8105)" style="fill:#97DDBF;stroke:#94A89F;stroke-width:0.25;stroke-miterlimit:10;" width="1.5" height="5.5"/>
		
			<rect x="708.3" y="185.4" transform="matrix(5.012809e-003 -1 1 5.012809e-003 517.3838 896.3419)" style="fill:#97DDBF;stroke:#94A89F;stroke-width:0.25;stroke-miterlimit:10;" width="1.5" height="5.5"/>
		
			<rect x="708.3" y="187" transform="matrix(5.012809e-003 -1 1 5.012809e-003 515.8384 897.8642)" style="fill:#97DDBF;stroke:#94A89F;stroke-width:0.25;stroke-miterlimit:10;" width="1.5" height="5.5"/>
		
			<rect x="708.3" y="188.5" transform="matrix(5.012809e-003 -1 1 5.012809e-003 514.2839 899.3954)" style="fill:#97DDBF;stroke:#94A89F;stroke-width:0.25;stroke-miterlimit:10;" width="1.5" height="5.5"/>
		
			<rect x="708.3" y="190" transform="matrix(5.012809e-003 -1 1 5.012809e-003 512.7385 900.9178)" style="fill:#97DDBF;stroke:#94A89F;stroke-width:0.25;stroke-miterlimit:10;" width="1.5" height="5.5"/>
		
			<rect x="708.3" y="191.6" transform="matrix(5.012809e-003 -1 1 5.012809e-003 511.184 902.4491)" style="fill:#97DDBF;stroke:#94A89F;stroke-width:0.25;stroke-miterlimit:10;" width="1.5" height="5.5"/>
		
			<rect x="708.3" y="193.1" transform="matrix(5.012809e-003 -1 1 5.012809e-003 509.6416 903.9684)" style="fill:#97DDBF;stroke:#94A89F;stroke-width:0.25;stroke-miterlimit:10;" width="1.5" height="5.5"/>
		
			<rect x="708.3" y="194.7" transform="matrix(5.012809e-003 -1 1 5.012809e-003 508.0871 905.4998)" style="fill:#97DDBF;stroke:#94A89F;stroke-width:0.25;stroke-miterlimit:10;" width="1.5" height="5.5"/>
		
			<rect x="708.3" y="196.2" transform="matrix(5.012809e-003 -1 1 5.012809e-003 506.5417 907.0221)" style="fill:#97DDBF;stroke:#94A89F;stroke-width:0.25;stroke-miterlimit:10;" width="1.5" height="5.5"/>
		
			<rect x="708.3" y="197.8" transform="matrix(5.012809e-003 -1 1 5.012809e-003 504.9872 908.5534)" style="fill:#97DDBF;stroke:#94A89F;stroke-width:0.25;stroke-miterlimit:10;" width="1.5" height="5.5"/>
		
			<rect x="708.3" y="199.3" transform="matrix(5.012809e-003 -1 1 5.012809e-003 503.4418 910.0757)" style="fill:#97DDBF;stroke:#94A89F;stroke-width:0.25;stroke-miterlimit:10;" width="1.5" height="5.5"/>
		
			<rect x="708.3" y="200.8" transform="matrix(5.012809e-003 -1 1 5.012809e-003 501.8873 911.6071)" style="fill:#97DDBF;stroke:#94A89F;stroke-width:0.25;stroke-miterlimit:10;" width="1.5" height="5.5"/>
		
			<rect x="708.3" y="202.4" transform="matrix(5.012809e-003 -1 1 5.012809e-003 500.3451 913.1262)" style="fill:#97DDBF;stroke:#94A89F;stroke-width:0.25;stroke-miterlimit:10;" width="1.5" height="5.5"/>
		
			<rect x="708.3" y="203.9" transform="matrix(5.012809e-003 -1 1 5.012809e-003 498.7906 914.6575)" style="fill:#97DDBF;stroke:#94A89F;stroke-width:0.25;stroke-miterlimit:10;" width="1.5" height="5.5"/>
		
			<rect x="708.2" y="205.5" transform="matrix(5.012809e-003 -1 1 5.012809e-003 497.2452 916.1798)" style="fill:#97DDBF;stroke:#94A89F;stroke-width:0.25;stroke-miterlimit:10;" width="1.5" height="5.5"/>
		
			<rect x="708.2" y="207" transform="matrix(5.012809e-003 -1 1 5.012809e-003 495.6907 917.7111)" style="fill:#97DDBF;stroke:#94A89F;stroke-width:0.25;stroke-miterlimit:10;" width="1.5" height="5.5"/>
		
			<rect x="708.2" y="208.5" transform="matrix(5.012809e-003 -1 1 5.012809e-003 494.1453 919.2335)" style="fill:#97DDBF;stroke:#94A89F;stroke-width:0.25;stroke-miterlimit:10;" width="1.5" height="5.5"/>
		
			<rect x="708.2" y="210.1" transform="matrix(5.012809e-003 -1 1 5.012809e-003 492.5908 920.7648)" style="fill:#97DDBF;stroke:#94A89F;stroke-width:0.25;stroke-miterlimit:10;" width="1.5" height="5.5"/>
		
			<rect x="708.2" y="211.6" transform="matrix(5.012809e-003 -1 1 5.012809e-003 491.0484 922.2841)" style="fill:#97DDBF;stroke:#94A89F;stroke-width:0.25;stroke-miterlimit:10;" width="1.5" height="5.5"/>
		
			<rect x="708.2" y="213.2" transform="matrix(5.012809e-003 -1 1 5.012809e-003 489.4939 923.8154)" style="fill:#97DDBF;stroke:#94A89F;stroke-width:0.25;stroke-miterlimit:10;" width="1.5" height="5.5"/>
		
			<rect x="695.4" y="188.2" transform="matrix(5.012809e-003 -1 1 5.012809e-003 524.0507 911.5511)" style="fill:#A3CCBE;stroke:#94A89F;stroke-width:0.25;stroke-miterlimit:10;" width="49.4" height="8.5"/>
		
			<rect x="719.5" y="165.8" transform="matrix(5.012809e-003 -1 1 5.012809e-003 548.0838 887.902)" style="fill:#97DDBF;stroke:#94A89F;stroke-width:0.25;stroke-miterlimit:10;" width="1.5" height="5.5"/>
		
			<rect x="719.4" y="167.3" transform="matrix(5.012809e-003 -1 1 5.012809e-003 546.5294 889.4333)" style="fill:#97DDBF;stroke:#94A89F;stroke-width:0.25;stroke-miterlimit:10;" width="1.5" height="5.5"/>
		
			<rect x="719.4" y="168.9" transform="matrix(5.012809e-003 -1 1 5.012809e-003 544.9839 890.9557)" style="fill:#97DDBF;stroke:#94A89F;stroke-width:0.25;stroke-miterlimit:10;" width="1.5" height="5.5"/>
		
			<rect x="719.4" y="170.4" transform="matrix(5.012809e-003 -1 1 5.012809e-003 543.4294 892.487)" style="fill:#97DDBF;stroke:#94A89F;stroke-width:0.25;stroke-miterlimit:10;" width="1.5" height="5.5"/>
		
			<rect x="719.4" y="171.9" transform="matrix(5.012809e-003 -1 1 5.012809e-003 541.884 894.0093)" style="fill:#97DDBF;stroke:#94A89F;stroke-width:0.25;stroke-miterlimit:10;" width="1.5" height="5.5"/>
		
			<rect x="719.4" y="173.5" transform="matrix(5.012809e-003 -1 1 5.012809e-003 540.3295 895.5406)" style="fill:#97DDBF;stroke:#94A89F;stroke-width:0.25;stroke-miterlimit:10;" width="1.5" height="5.5"/>
		
			<rect x="719.4" y="175" transform="matrix(5.012809e-003 -1 1 5.012809e-003 538.7872 897.0599)" style="fill:#97DDBF;stroke:#94A89F;stroke-width:0.25;stroke-miterlimit:10;" width="1.5" height="5.5"/>
		
			<rect x="719.4" y="176.6" transform="matrix(5.012809e-003 -1 1 5.012809e-003 537.2327 898.5912)" style="fill:#97DDBF;stroke:#94A89F;stroke-width:0.25;stroke-miterlimit:10;" width="1.5" height="5.5"/>
		
			<rect x="719.4" y="178.1" transform="matrix(5.012809e-003 -1 1 5.012809e-003 535.6873 900.1136)" style="fill:#97DDBF;stroke:#94A89F;stroke-width:0.25;stroke-miterlimit:10;" width="1.5" height="5.5"/>
		
			<rect x="719.4" y="179.7" transform="matrix(5.012809e-003 -1 1 5.012809e-003 534.1328 901.6449)" style="fill:#97DDBF;stroke:#94A89F;stroke-width:0.25;stroke-miterlimit:10;" width="1.5" height="5.5"/>
		
			<rect x="719.4" y="181.2" transform="matrix(5.012809e-003 -1 1 5.012809e-003 532.5873 903.1672)" style="fill:#97DDBF;stroke:#94A89F;stroke-width:0.25;stroke-miterlimit:10;" width="1.5" height="5.5"/>
		
			<rect x="719.4" y="182.7" transform="matrix(5.012809e-003 -1 1 5.012809e-003 531.0328 904.6985)" style="fill:#97DDBF;stroke:#94A89F;stroke-width:0.25;stroke-miterlimit:10;" width="1.5" height="5.5"/>
		
			<rect x="719.4" y="184.3" transform="matrix(5.012809e-003 -1 1 5.012809e-003 529.4907 906.2177)" style="fill:#97DDBF;stroke:#94A89F;stroke-width:0.25;stroke-miterlimit:10;" width="1.5" height="5.5"/>
		
			<rect x="719.4" y="185.8" transform="matrix(5.012809e-003 -1 1 5.012809e-003 527.9362 907.749)" style="fill:#97DDBF;stroke:#94A89F;stroke-width:0.25;stroke-miterlimit:10;" width="1.5" height="5.5"/>
		
			<rect x="719.3" y="187.4" transform="matrix(5.012809e-003 -1 1 5.012809e-003 526.3907 909.2713)" style="fill:#97DDBF;stroke:#94A89F;stroke-width:0.25;stroke-miterlimit:10;" width="1.5" height="5.5"/>
		
			<rect x="719.3" y="188.9" transform="matrix(5.012809e-003 -1 1 5.012809e-003 524.8362 910.8026)" style="fill:#97DDBF;stroke:#94A89F;stroke-width:0.25;stroke-miterlimit:10;" width="1.5" height="5.5"/>
		
			<rect x="719.3" y="190.4" transform="matrix(5.012809e-003 -1 1 5.012809e-003 523.2908 912.325)" style="fill:#97DDBF;stroke:#94A89F;stroke-width:0.25;stroke-miterlimit:10;" width="1.5" height="5.5"/>
		
			<rect x="719.3" y="192" transform="matrix(5.012809e-003 -1 1 5.012809e-003 521.7363 913.8563)" style="fill:#97DDBF;stroke:#94A89F;stroke-width:0.25;stroke-miterlimit:10;" width="1.5" height="5.5"/>
		
			<rect x="719.3" y="193.5" transform="matrix(5.012809e-003 -1 1 5.012809e-003 520.194 915.3756)" style="fill:#97DDBF;stroke:#94A89F;stroke-width:0.25;stroke-miterlimit:10;" width="1.5" height="5.5"/>
		
			<rect x="719.3" y="195.1" transform="matrix(5.012809e-003 -1 1 5.012809e-003 518.6395 916.9069)" style="fill:#97DDBF;stroke:#94A89F;stroke-width:0.25;stroke-miterlimit:10;" width="1.5" height="5.5"/>
		
			<rect x="719.3" y="196.6" transform="matrix(5.012809e-003 -1 1 5.012809e-003 517.0941 918.4293)" style="fill:#97DDBF;stroke:#94A89F;stroke-width:0.25;stroke-miterlimit:10;" width="1.5" height="5.5"/>
		
			<rect x="719.3" y="198.2" transform="matrix(5.012809e-003 -1 1 5.012809e-003 515.5396 919.9605)" style="fill:#97DDBF;stroke:#94A89F;stroke-width:0.25;stroke-miterlimit:10;" width="1.5" height="5.5"/>
		
			<rect x="719.3" y="199.7" transform="matrix(5.012809e-003 -1 1 5.012809e-003 513.9941 921.4828)" style="fill:#97DDBF;stroke:#94A89F;stroke-width:0.25;stroke-miterlimit:10;" width="1.5" height="5.5"/>
		
			<rect x="719.3" y="201.2" transform="matrix(5.012809e-003 -1 1 5.012809e-003 512.4396 923.0142)" style="fill:#97DDBF;stroke:#94A89F;stroke-width:0.25;stroke-miterlimit:10;" width="1.5" height="5.5"/>
		
			<rect x="719.3" y="202.8" transform="matrix(5.012809e-003 -1 1 5.012809e-003 510.8975 924.5333)" style="fill:#97DDBF;stroke:#94A89F;stroke-width:0.25;stroke-miterlimit:10;" width="1.5" height="5.5"/>
		
			<rect x="719.3" y="204.3" transform="matrix(5.012809e-003 -1 1 5.012809e-003 509.343 926.0646)" style="fill:#97DDBF;stroke:#94A89F;stroke-width:0.25;stroke-miterlimit:10;" width="1.5" height="5.5"/>
		
			<rect x="719.3" y="205.9" transform="matrix(5.012809e-003 -1 1 5.012809e-003 507.7976 927.587)" style="fill:#97DDBF;stroke:#94A89F;stroke-width:0.25;stroke-miterlimit:10;" width="1.5" height="5.5"/>
		
			<rect x="719.2" y="207.4" transform="matrix(5.012809e-003 -1 1 5.012809e-003 506.2431 929.1183)" style="fill:#97DDBF;stroke:#94A89F;stroke-width:0.25;stroke-miterlimit:10;" width="1.5" height="5.5"/>
		
			<rect x="719.2" y="208.9" transform="matrix(5.012809e-003 -1 1 5.012809e-003 504.6977 930.6406)" style="fill:#97DDBF;stroke:#94A89F;stroke-width:0.25;stroke-miterlimit:10;" width="1.5" height="5.5"/>
		
			<rect x="719.2" y="210.5" transform="matrix(5.012809e-003 -1 1 5.012809e-003 503.1432 932.1719)" style="fill:#97DDBF;stroke:#94A89F;stroke-width:0.25;stroke-miterlimit:10;" width="1.5" height="5.5"/>
		
			<rect x="719.2" y="212" transform="matrix(5.012809e-003 -1 1 5.012809e-003 501.6008 933.6912)" style="fill:#97DDBF;stroke:#94A89F;stroke-width:0.25;stroke-miterlimit:10;" width="1.5" height="5.5"/>
		
			<rect x="719.2" y="213.6" transform="matrix(5.012809e-003 -1 1 5.012809e-003 500.0463 935.2225)" style="fill:#97DDBF;stroke:#94A89F;stroke-width:0.25;stroke-miterlimit:10;" width="1.5" height="5.5"/>
	</g>
</g>
<g id="sanitario">
	<rect x="703" y="34.3" style="fill:#97DDBF;stroke:#94A89F;stroke-width:0.75;stroke-miterlimit:10;" width="25.5" height="17"/>
	<rect x="703" y="51.8" style="fill:#97DDBF;stroke:#94A89F;stroke-width:0.75;stroke-miterlimit:10;" width="25.5" height="18.7"/>
	
		<rect x="902.8" y="340.2" style="fill:#97DDBF;stroke:#94A89F;stroke-width:0.75;stroke-miterlimit:10;" width="26.2" height="18.2"/>
	
		<rect x="929" y="340.2" style="fill:#97DDBF;stroke:#94A89F;stroke-width:0.75;stroke-miterlimit:10;" width="24.2" height="18.2"/>
	
		<rect x="929" y="308.3" style="fill:#97DDBF;stroke:#94A89F;stroke-width:0.75;stroke-miterlimit:10;" width="37.7" height="26.2"/>
</g>
<g id="entradas">
	<rect x="502.5" y="424.6" style="fill:#ACE5CF;" width="12.3" height="14.3"/>
	<rect x="887.7" y="353.8" style="fill:#ACE5CF;" width="14.2" height="11.3"/>
	<path style="fill:#ACE5CF;" d="M1105.1,147h28.2c0,0,1.8,24.3,0,24.3c-1.8,0-28.2,0-28.2,0V147z"/>
</g>
<g id="elevador">
	<rect x="1030.5" y="359.5" style="fill:#C3D8CD;" width="23.5" height="24"/>
	<rect x="1056" y="359.5" style="fill:#C3D8CD;" width="22.8" height="24"/>
</g>
<g id="pinentradas">
	<g id="Layer_86">
		<g>
			<polygon id="pinosanitario_26_" style="fill:#5B6A75;" points="507.8,432.1 509.9,438.1 518.4,438.1 518.4,455.5 497.6,455.5 
				497.6,438.1 506.1,438.1 			"/>
			<g>
				
					<text transform="matrix(0.862 0 0 1 501.4315 444.7531)" style="fill:#FFFFFF; font-family:'Oswald-Regular'; font-size:4.2px;">ENTRADA</text>
			</g>
			<text transform="matrix(1 0 0 1 504.5475 453.8505)" style="fill:#FFFFFF; font-family:'Oswald-Regular'; font-size:9px;">M</text>
		</g>
	</g>
	<g id="Layer_86_copy">
		<g>
			<polygon id="pinosanitario_1_" style="fill:#5B6A75;" points="894.6,358.5 896.6,364.5 905.2,364.5 905.2,381.9 884.3,381.9 
				884.3,364.5 892.8,364.5 			"/>
			<g>
				
					<text transform="matrix(0.862 0 0 1 888.1835 371.1318)" style="fill:#FFFFFF; font-family:'Oswald-Regular'; font-size:4.2px;">ENTRADA</text>
			</g>
			<text transform="matrix(1 0 0 1 893.2996 380.2292)" style="fill:#FFFFFF; font-family:'Oswald-Regular'; font-size:9px;">L</text>
		</g>
	</g>
	<g id="Layer_86_copy_2">
		<g>
			<polygon id="pinosanitario_2_" style="fill:#5B6A75;" points="1127.5,159.9 1133.5,157.9 1133.5,149.3 1152.8,149.3 
				1152.8,170.2 1133.5,170.2 1133.5,161.7 			"/>
			<g>
				
					<text transform="matrix(0.862 0 0 1 1136.5779 157.7167)" style="fill:#FFFFFF; font-family:'Oswald-Regular'; font-size:4.2px;">ENTRADA</text>
			</g>
			<text transform="matrix(1 0 0 1 1140.6938 166.8141)" style="fill:#FFFFFF; font-family:'Oswald-Regular'; font-size:9px;">K</text>
		</g>
	</g>
</g>
<g id="pinelevador" style="display:none;">
	<g id="Layer_91" style="display:inline;">
		<ellipse style="fill:#43515B;" cx="1042.4" cy="371.9" rx="0.7" ry="0.2"/>
		<polygon id="pinosanitario_5_" style="fill:#5B6A75;" points="1042.4,371.8 1040.6,366.9 1037.5,366.9 1037.5,358.3 1047,358.3 
			1047,366.9 1043.9,366.9 		"/>
		<g>
			<g id="male_2_">
				<path style="fill:#FFFFFF;" d="M1040.5,361.4c-0.1,0-0.2,0-0.3,0.1c-0.1,0.1-0.1,0.2-0.1,0.3v0.9c0,0,0,0.1,0,0.1
					c0,0,0.1,0,0.1,0c0,0,0.1,0,0.1,0c0,0,0-0.1,0-0.1v-0.8h0.1v2.3c0,0,0,0.1,0.1,0.1c0,0,0.1,0.1,0.1,0.1c0.1,0,0.1,0,0.1-0.1
					c0,0,0.1-0.1,0.1-0.1v-1.4h0.1v1.4c0,0,0,0.1,0.1,0.1c0,0,0.1,0.1,0.1,0.1c0,0,0.1,0,0.1-0.1c0,0,0.1-0.1,0.1-0.1v-2.3h0.1v0.8
					c0,0,0,0.1,0,0.1c0,0,0.1,0,0.1,0c0,0,0.1,0,0.1,0c0,0,0-0.1,0-0.1v-0.9c0-0.1,0-0.2-0.1-0.3c-0.1-0.1-0.2-0.1-0.3-0.1H1040.5z"
					/>
				<path style="fill:#FFFFFF;" d="M1040.9,361.3c0.1,0,0.2,0,0.2-0.1c0.1-0.1,0.1-0.1,0.1-0.2c0-0.1,0-0.2-0.1-0.2
					c-0.1-0.1-0.1-0.1-0.2-0.1c-0.1,0-0.2,0-0.2,0.1c-0.1,0.1-0.1,0.1-0.1,0.2c0,0.1,0,0.2,0.1,0.2
					C1040.7,361.3,1040.8,361.3,1040.9,361.3L1040.9,361.3z"/>
			</g>
			<g>
				<polygon style="fill:#FFFFFF;" points="1043.4,362.2 1044.3,361.3 1045.2,362.2 				"/>
				<polygon style="fill:#FFFFFF;" points="1043.4,363 1044.3,363.8 1045.2,363 				"/>
			</g>
			<rect x="1039.3" y="360" style="fill:none;stroke:#FFFFFF;stroke-width:0.25;stroke-miterlimit:10;" width="3.1" height="5.1"/>
		</g>
	</g>
	<g id="Layer_91_copy" style="display:inline;">
		<ellipse style="fill:#43515B;" cx="1066.4" cy="371.9" rx="0.7" ry="0.2"/>
		<polygon id="pinosanitario_3_" style="fill:#5B6A75;" points="1066.4,371.8 1064.6,366.9 1061.5,366.9 1061.5,358.3 1071,358.3 
			1071,366.9 1067.9,366.9 		"/>
		<g>
			<g id="male_1_">
				<path style="fill:#FFFFFF;" d="M1064.5,361.4c-0.1,0-0.2,0-0.3,0.1c-0.1,0.1-0.1,0.2-0.1,0.3v0.9c0,0,0,0.1,0,0.1
					c0,0,0.1,0,0.1,0c0,0,0.1,0,0.1,0c0,0,0-0.1,0-0.1v-0.8h0.1v2.3c0,0,0,0.1,0.1,0.1c0,0,0.1,0.1,0.1,0.1c0.1,0,0.1,0,0.1-0.1
					c0,0,0.1-0.1,0.1-0.1v-1.4h0.1v1.4c0,0,0,0.1,0.1,0.1c0,0,0.1,0.1,0.1,0.1c0,0,0.1,0,0.1-0.1c0,0,0.1-0.1,0.1-0.1v-2.3h0.1v0.8
					c0,0,0,0.1,0,0.1c0,0,0.1,0,0.1,0c0,0,0.1,0,0.1,0c0,0,0-0.1,0-0.1v-0.9c0-0.1,0-0.2-0.1-0.3c-0.1-0.1-0.2-0.1-0.3-0.1H1064.5z"
					/>
				<path style="fill:#FFFFFF;" d="M1064.9,361.3c0.1,0,0.2,0,0.2-0.1c0.1-0.1,0.1-0.1,0.1-0.2c0-0.1,0-0.2-0.1-0.2
					c-0.1-0.1-0.1-0.1-0.2-0.1c-0.1,0-0.2,0-0.2,0.1c-0.1,0.1-0.1,0.1-0.1,0.2c0,0.1,0,0.2,0.1,0.2
					C1064.7,361.3,1064.8,361.3,1064.9,361.3L1064.9,361.3z"/>
			</g>
			<g>
				<polygon style="fill:#FFFFFF;" points="1067.4,362.2 1068.3,361.3 1069.2,362.2 				"/>
				<polygon style="fill:#FFFFFF;" points="1067.4,363 1068.3,363.8 1069.2,363 				"/>
			</g>
			<rect x="1063.3" y="360" style="fill:none;stroke:#FFFFFF;stroke-width:0.25;stroke-miterlimit:10;" width="3.1" height="5.1"/>
		</g>
	</g>
</g>
<g id="pinsanitariofeminino" style="display:none;">
	<g id="Layer_95" style="display:inline;">
		<polygon id="pinosanitario_19_" style="fill:#5B6A75;" points="716.1,48.8 714,42.8 710.5,42.8 710.5,32.5 721.3,32.5 721.3,42.8 
			717.8,42.8 		"/>
		<g id="female_3_">
			<path style="fill:#FFFFFF;" d="M715.9,38.9V41c0,0.1,0,0.2-0.1,0.2c-0.1,0.1-0.1,0.1-0.2,0.1c-0.1,0-0.2,0-0.2-0.1
				c-0.1,0-0.1-0.1-0.1-0.2v-2.1h-0.8l0.8-2.8h-0.1c-0.1,0.3-0.2,0.6-0.2,0.8c-0.1,0.2-0.1,0.4-0.2,0.6c-0.1,0.2-0.1,0.3-0.1,0.3
				c0,0.1-0.1,0.2-0.2,0.2l-0.1,0c-0.1,0-0.2-0.1-0.2-0.2c0,0,0-0.1,0-0.1c0,0,0-0.1,0.1-0.2c0-0.1,0.1-0.3,0.1-0.4
				c0.1-0.2,0.1-0.4,0.2-0.6c0.1-0.2,0.1-0.4,0.2-0.6c0-0.1,0.1-0.3,0.3-0.4c0.1-0.1,0.3-0.2,0.4-0.2h1c0.2,0,0.3,0.1,0.4,0.2
				c0.1,0.1,0.2,0.2,0.3,0.4c0.1,0.2,0.1,0.4,0.2,0.6c0.1,0.2,0.1,0.4,0.2,0.6c0.1,0.2,0.1,0.3,0.1,0.4c0,0.1,0.1,0.2,0.1,0.2l0,0.1
				c0,0.1-0.1,0.2-0.2,0.2l-0.1,0c-0.1,0-0.2-0.1-0.2-0.2c0,0,0-0.2-0.1-0.3c-0.1-0.2-0.1-0.4-0.2-0.6c-0.1-0.2-0.1-0.5-0.2-0.8
				h-0.1l0.8,2.8h-0.8V41c0,0.1,0,0.2-0.1,0.2c-0.1,0.1-0.1,0.1-0.2,0.1c-0.1,0-0.2,0-0.2-0.1c-0.1,0-0.1-0.1-0.1-0.2v-2.1H715.9z"
				/>
			<path style="fill:#FFFFFF;" d="M716,35.1c0.2,0,0.3-0.1,0.4-0.2c0.1-0.1,0.2-0.3,0.2-0.4c0-0.2-0.1-0.3-0.2-0.4
				c-0.1-0.1-0.3-0.2-0.4-0.2c-0.2,0-0.3,0.1-0.4,0.2c-0.1,0.1-0.2,0.3-0.2,0.4c0,0.2,0.1,0.3,0.2,0.4C715.6,35,715.8,35.1,716,35.1
				L716,35.1z"/>
		</g>
	</g>
	<g id="Layer_95_copy" style="display:inline;">
		<polygon id="pinosanitario_4_" style="fill:#5B6A75;" points="916.1,354.8 914,348.8 910.5,348.8 910.5,338.5 921.3,338.5 
			921.3,348.8 917.8,348.8 		"/>
		<g id="female_1_">
			<path style="fill:#FFFFFF;" d="M915.9,344.9v2.1c0,0.1,0,0.2-0.1,0.2c-0.1,0.1-0.1,0.1-0.2,0.1c-0.1,0-0.2,0-0.2-0.1
				c-0.1,0-0.1-0.1-0.1-0.2v-2.1h-0.8l0.8-2.8h-0.1c-0.1,0.3-0.2,0.6-0.2,0.8c-0.1,0.2-0.1,0.4-0.2,0.6c-0.1,0.2-0.1,0.3-0.1,0.3
				c0,0.1-0.1,0.2-0.2,0.2l-0.1,0c-0.1,0-0.2-0.1-0.2-0.2c0,0,0-0.1,0-0.1c0,0,0-0.1,0.1-0.2c0-0.1,0.1-0.3,0.1-0.4
				c0.1-0.2,0.1-0.4,0.2-0.6s0.1-0.4,0.2-0.6c0-0.1,0.1-0.3,0.3-0.4c0.1-0.1,0.3-0.2,0.4-0.2h1c0.2,0,0.3,0.1,0.4,0.2
				c0.1,0.1,0.2,0.2,0.3,0.4c0.1,0.2,0.1,0.4,0.2,0.6c0.1,0.2,0.1,0.4,0.2,0.6c0.1,0.2,0.1,0.3,0.1,0.4c0,0.1,0.1,0.2,0.1,0.2l0,0.1
				c0,0.1-0.1,0.2-0.2,0.2l-0.1,0c-0.1,0-0.2-0.1-0.2-0.2c0,0,0-0.2-0.1-0.3c-0.1-0.2-0.1-0.4-0.2-0.6c-0.1-0.2-0.1-0.5-0.2-0.8
				h-0.1l0.8,2.8h-0.8v2.1c0,0.1,0,0.2-0.1,0.2c-0.1,0.1-0.1,0.1-0.2,0.1c-0.1,0-0.2,0-0.2-0.1c-0.1,0-0.1-0.1-0.1-0.2v-2.1H915.9z"
				/>
			<path style="fill:#FFFFFF;" d="M916,341.1c0.2,0,0.3-0.1,0.4-0.2c0.1-0.1,0.2-0.3,0.2-0.4c0-0.2-0.1-0.3-0.2-0.4
				c-0.1-0.1-0.3-0.2-0.4-0.2c-0.2,0-0.3,0.1-0.4,0.2c-0.1,0.1-0.2,0.3-0.2,0.4c0,0.2,0.1,0.3,0.2,0.4
				C915.6,341,915.8,341.1,916,341.1L916,341.1z"/>
		</g>
	</g>
</g>
<g id="pinsanitariomasculino" style="display:none;">
	<g id="Layer_98" style="display:inline;">
		<ellipse style="fill:#43515B;" cx="940.7" cy="353.9" rx="0.8" ry="0.2"/>
		<polygon id="pinosanitario_20_" style="fill:#5B6A75;" points="940.7,353.9 938.6,347.9 935.1,347.9 935.1,337.6 945.9,337.6 
			945.9,347.9 942.4,347.9 		"/>
		<g id="male_11_">
			<path style="fill:#FFFFFF;" d="M939.9,340.4c-0.2,0-0.4,0.1-0.5,0.2c-0.2,0.2-0.2,0.3-0.2,0.6v1.9c0,0.1,0,0.1,0.1,0.2
				c0.1,0.1,0.1,0.1,0.2,0.1c0.1,0,0.1,0,0.2-0.1c0-0.1,0.1-0.1,0.1-0.2v-1.7h0.1v4.7c0,0.1,0,0.2,0.1,0.2c0.1,0.1,0.2,0.1,0.2,0.1
				c0.1,0,0.2,0,0.3-0.1c0.1-0.1,0.1-0.1,0.1-0.2v-2.7h0.2v2.7c0,0.1,0,0.2,0.1,0.2c0.1,0.1,0.2,0.1,0.3,0.1c0.1,0,0.2,0,0.2-0.1
				c0.1-0.1,0.1-0.1,0.1-0.2v-4.7h0.1v1.7c0,0.1,0,0.1,0.1,0.2c0.1,0.1,0.1,0.1,0.2,0.1c0.1,0,0.1,0,0.2-0.1c0-0.1,0.1-0.1,0.1-0.2
				v-1.9c0-0.2-0.1-0.4-0.2-0.5c-0.1-0.2-0.3-0.2-0.6-0.2H939.9z"/>
			<path style="fill:#FFFFFF;" d="M940.6,340.2c0.2,0,0.3-0.1,0.4-0.2c0.1-0.1,0.2-0.3,0.2-0.4c0-0.2-0.1-0.3-0.2-0.4
				c-0.1-0.1-0.3-0.2-0.4-0.2c-0.2,0-0.3,0.1-0.4,0.2c-0.1,0.1-0.2,0.3-0.2,0.4c0,0.2,0.1,0.3,0.2,0.4
				C940.3,340.2,940.5,340.2,940.6,340.2L940.6,340.2z"/>
		</g>
	</g>
	<g id="Layer_98_copy" style="display:inline;">
		<ellipse style="fill:#43515B;" cx="714.7" cy="67.9" rx="0.8" ry="0.2"/>
		<polygon id="pinosanitario_6_" style="fill:#5B6A75;" points="714.7,67.9 712.6,61.9 709.1,61.9 709.1,51.6 719.9,51.6 
			719.9,61.9 716.4,61.9 		"/>
		<g id="male_3_">
			<path style="fill:#FFFFFF;" d="M713.9,54.4c-0.2,0-0.4,0.1-0.5,0.2c-0.2,0.2-0.2,0.3-0.2,0.6v1.9c0,0.1,0,0.1,0.1,0.2
				c0.1,0.1,0.1,0.1,0.2,0.1c0.1,0,0.1,0,0.2-0.1c0-0.1,0.1-0.1,0.1-0.2v-1.7h0.1v4.7c0,0.1,0,0.2,0.1,0.2c0.1,0.1,0.2,0.1,0.2,0.1
				c0.1,0,0.2,0,0.3-0.1c0.1-0.1,0.1-0.1,0.1-0.2v-2.7h0.2v2.7c0,0.1,0,0.2,0.1,0.2c0.1,0.1,0.2,0.1,0.3,0.1c0.1,0,0.2,0,0.2-0.1
				c0.1-0.1,0.1-0.1,0.1-0.2v-4.7h0.1v1.7c0,0.1,0,0.1,0.1,0.2c0.1,0.1,0.1,0.1,0.2,0.1c0.1,0,0.1,0,0.2-0.1c0-0.1,0.1-0.1,0.1-0.2
				v-1.9c0-0.2-0.1-0.4-0.2-0.5c-0.1-0.2-0.3-0.2-0.6-0.2H713.9z"/>
			<path style="fill:#FFFFFF;" d="M714.6,54.2c0.2,0,0.3-0.1,0.4-0.2c0.1-0.1,0.2-0.3,0.2-0.4c0-0.2-0.1-0.3-0.2-0.4
				c-0.1-0.1-0.3-0.2-0.4-0.2c-0.2,0-0.3,0.1-0.4,0.2c-0.1,0.1-0.2,0.3-0.2,0.4c0,0.2,0.1,0.3,0.2,0.4
				C714.3,54.2,714.5,54.2,714.6,54.2L714.6,54.2z"/>
		</g>
	</g>
</g>
<g id="pinsanitariofamilia" style="display:none;">
	<g id="Layer_101" style="display:inline;">
		<ellipse style="fill:#43515B;" cx="947.6" cy="327.9" rx="0.8" ry="0.2"/>
		<polygon id="pinosanitario_12_" style="fill:#5B6A75;" points="947.6,327.9 945.6,321.9 942,321.9 942,311.6 952.9,311.6 
			952.9,321.9 949.4,321.9 		"/>
		<path style="fill:#FFFFFF;" d="M945.7,313.9c0,0.3-0.3,0.6-0.6,0.6c-0.3,0-0.6-0.3-0.6-0.6c0-0.3,0.3-0.6,0.6-0.6
			C945.4,313.3,945.7,313.6,945.7,313.9L945.7,313.9z M945.2,317.7l0.1,2.1c0,0.1,0.1,0.1,0.1,0.1c0.1,0,0.1-0.1,0.1-0.1l0.1-2.1
			h0.4l-0.4-2.3l0.8,1.5c0,0.1,0.1,0.1,0.2,0.1c0.1,0,0.1-0.1,0.1-0.2c0,0-0.6-1.5-0.7-1.8c-0.1-0.3-0.3-0.4-0.8-0.4h-0.1
			c-0.5,0-0.7,0.2-0.8,0.4c-0.1,0.3-0.7,1.8-0.7,1.8c0,0.1,0,0.1,0.1,0.2c0.1,0,0.1,0,0.2-0.1l0.8-1.5l-0.4,2.3h0.4l0.1,2.1
			c0,0.1,0.1,0.1,0.1,0.1c0.1,0,0.1-0.1,0.1-0.1l0.1-2.1H945.2z M949.6,313.3c-0.3,0-0.6,0.3-0.6,0.6c0,0.3,0.3,0.6,0.6,0.6
			c0.3,0,0.6-0.3,0.6-0.6C950.2,313.6,949.9,313.3,949.6,313.3L949.6,313.3z M950.2,316.6l0-1.2l0.7,1.5c0,0.1,0.1,0.1,0.2,0.1
			c0.1,0,0.1-0.1,0.1-0.2c0,0-0.5-1.5-0.6-1.8c-0.1-0.3-0.4-0.5-0.9-0.5h-0.1c-0.5,0-0.7,0.2-0.9,0.5c-0.1,0.3-0.6,1.8-0.6,1.8
			c0,0.1,0,0.1,0.1,0.2c0.1,0,0.1,0,0.2-0.1l0.7-1.5l0,1.2l-0.1,3.1c0,0.1,0.1,0.2,0.2,0.2c0,0,0,0,0,0c0.1,0,0.2-0.1,0.2-0.2
			l0.2-2.5l0.3,2.5c0,0.1,0.1,0.2,0.2,0.2c0,0,0,0,0,0c0.1,0,0.2-0.1,0.2-0.2L950.2,316.6L950.2,316.6z M947.4,316.7
			c-0.2,0-0.3,0.2-0.3,0.3c0,0.2,0.2,0.3,0.3,0.3c0.2,0,0.3-0.2,0.3-0.3C947.7,316.9,947.6,316.7,947.4,316.7L947.4,316.7z
			 M947.4,318.8c0,0,0.2,1.1,0.2,1.1c0,0.1,0.1,0.1,0.1,0.1c0.1,0,0.1,0,0.1-0.1c0,0,0-0.1,0-0.1l-0.1-1.3l0-0.5
			c0-0.2,0-0.1,0.2-0.2c0.2-0.1,0.5-0.6,0.5-0.6c0,0,0-0.1,0-0.1c0,0,0-0.1-0.1-0.1c0,0-0.1,0-0.1,0c0,0-0.4,0.5-0.6,0.5
			c-0.1,0-0.1,0-0.3,0h-0.1c-0.2,0-0.2,0-0.3,0c-0.3,0-0.6-0.5-0.6-0.5c0,0-0.1,0-0.1,0c0,0-0.1,0.1-0.1,0.1c0,0,0,0.1,0,0.1
			c0,0,0.3,0.5,0.5,0.6c0.2,0.1,0.2,0.1,0.2,0.2l0,0.5l-0.1,1.3c0,0,0,0.1,0,0.1c0,0.1,0.1,0.1,0.1,0.1c0.1,0,0.1,0,0.1-0.1
			C947.2,319.8,947.4,318.8,947.4,318.8"/>
	</g>
</g>

	<g id="pinlocation" style="display:none;">
		<ellipse style="display:inline;" cx="719.8" cy="80.6" rx="0.8" ry="0.2"/>
		<circle style="display:inline;fill:#FFFFFF;stroke:#555555;stroke-miterlimit:10;" cx="719.5" cy="69.1" r="3.6"/>
		<path id="pino_1_" style="display:inline;fill:#DD883C;" d="M719.7,63.5c-3.1,0-5.6,2.6-5.6,5.7c0,1.3,0.8,3.3,2.5,6.2
			c1.2,2.1,2.3,3.8,2.4,3.9l0.8,1.3l0.8-1.3c0-0.1,1.2-1.8,2.3-3.9c1.6-3,2.4-5,2.4-6.3C725.3,66,722.8,63.5,719.7,63.5L719.7,63.5z
			 M719.7,72c-1.6,0-2.9-1.3-2.9-2.9c0-1.6,1.3-2.9,2.9-2.9c1.6,0,2.9,1.3,2.9,2.9C722.7,70.7,721.4,72,719.7,72L719.7,72z M719.7,72
			"/>
	</g>
	
	<g id="pintooltip" style="display:none;">
	  <polygon id="pinotooltip" style="display:inline;fill:#FFFFFF;stroke:#9B9B9B;stroke-width:0.25;stroke-miterlimit:10;" points="322.7,249.4 320.7,243.4 300.7,243.4 300.7,230 344.5,230 344.5,243.3 324.5,243.3"/>
			  <a xlink:href="http://www.teste.com.br" target="_blank" id="pintooltiplink">
				 <text id="pintooltiptextoSegmento" style="display:inline;fill:#333333; font-family:'oswald'; font-size:16px;">Segmento</text>
				 <text id="pintooltiptexto" style="display:inline;fill:#333333; font-family:'oswald'; font-size:22px;">Antnio Bernardo</text>
			  </a>
	</g>
	
	<defs>
		<pattern id="diagonalHatch" patternUnits="userSpaceOnUse" width="4" height="4">
			<g style="fill:#0E5D47; stroke:#2D7B67; stroke-width:2">
				<path d="M-1,1 l2,-2
				 M0,4 l4,-4
				 M3,5 l2,-2" />
			</g>
		</pattern>
		<pattern id="diagonalHatchLojaAtual" patternUnits="userSpaceOnUse" width="4" height="4">
			<g style="fill:#333333; stroke:#555555; stroke-width:2">
				<path d="M-1,1 l2,-2
				 M0,4 l4,-4
				 M3,5 l2,-2" />
			</g>
		</pattern>
	</defs>
</svg>
